ISO-10303-21;
HEADER;
/* Generated by software containing ST-Developer
 * from STEP Tools, Inc. (www.steptools.com) 
 */

FILE_DESCRIPTION(
/* description */ (''),
/* implementation_level */ '2;1');

FILE_NAME(
/* name */ '',
/* time_stamp */ '2025-09-12T10:19:47+08:00',
/* author */ (''),
/* organization */ (''),
/* preprocessor_version */ 'ST-DEVELOPER v20.1',
/* originating_system */ 'Autodesk Translation Framework v14.10.0.0',
/* authorisation */ '');

FILE_SCHEMA (('AUTOMOTIVE_DESIGN { 1 0 10303 214 3 1 1 }'));
ENDSEC;

DATA;
#10=MECHANICAL_DESIGN_GEOMETRIC_PRESENTATION_REPRESENTATION('',(#17),#1990);
#11=ITEM_DEFINED_TRANSFORMATION($,$,#1220,#1321);
#12=(
REPRESENTATION_RELATIONSHIP($,$,#2001,#2000)
REPRESENTATION_RELATIONSHIP_WITH_TRANSFORMATION(#11)
SHAPE_REPRESENTATION_RELATIONSHIP()
);
#13=CONTEXT_DEPENDENT_SHAPE_REPRESENTATION(#12,#1999);
#14=NEXT_ASSEMBLY_USAGE_OCCURRENCE('\X2\6FC0514996F78FBE659C88C5677F\X0\:
1','\X2\6FC0514996F78FBE659C88C5677F\X0\:1','\X2\6FC0514996F78FBE659C88C5677F\X0\:
1',#2003,#2004,'\X2\6FC0514996F78FBE659C88C5677F\X0\:1');
#15=SHAPE_REPRESENTATION_RELATIONSHIP('SRR','None',#2001,#16);
#16=ADVANCED_BREP_SHAPE_REPRESENTATION('',(#18),#1989);
#17=STYLED_ITEM('',(#2014),#18);
#18=MANIFOLD_SOLID_BREP('\X2\5B9E4F53\X0\19',#1206);
#19=CYLINDRICAL_SURFACE('',#1244,3.5);
#20=CYLINDRICAL_SURFACE('',#1246,3.50000000000001);
#21=CYLINDRICAL_SURFACE('',#1248,1.5);
#22=CYLINDRICAL_SURFACE('',#1250,1.5);
#23=CYLINDRICAL_SURFACE('',#1252,1.5);
#24=CYLINDRICAL_SURFACE('',#1254,1.5);
#25=CYLINDRICAL_SURFACE('',#1263,3.5);
#26=CYLINDRICAL_SURFACE('',#1266,3.5);
#27=CYLINDRICAL_SURFACE('',#1274,1.49999999999999);
#28=CYLINDRICAL_SURFACE('',#1275,1.5);
#29=CYLINDRICAL_SURFACE('',#1276,1.5);
#30=CYLINDRICAL_SURFACE('',#1277,1.5);
#31=CYLINDRICAL_SURFACE('',#1290,1.5);
#32=CYLINDRICAL_SURFACE('',#1292,1.49999999999999);
#33=CYLINDRICAL_SURFACE('',#1294,1.5);
#34=CYLINDRICAL_SURFACE('',#1296,1.5);
#35=CYLINDRICAL_SURFACE('',#1298,1.5);
#36=CYLINDRICAL_SURFACE('',#1300,1.5);
#37=CYLINDRICAL_SURFACE('',#1314,1.5);
#38=CYLINDRICAL_SURFACE('',#1315,1.5);
#39=FACE_BOUND('',#180,.T.);
#40=FACE_BOUND('',#181,.T.);
#41=FACE_BOUND('',#182,.T.);
#42=FACE_BOUND('',#183,.T.);
#43=FACE_BOUND('',#184,.T.);
#44=FACE_BOUND('',#185,.T.);
#45=FACE_BOUND('',#186,.T.);
#46=FACE_BOUND('',#187,.T.);
#47=FACE_BOUND('',#196,.T.);
#48=FACE_BOUND('',#197,.T.);
#49=FACE_BOUND('',#198,.T.);
#50=FACE_BOUND('',#199,.T.);
#51=FACE_BOUND('',#200,.T.);
#52=FACE_BOUND('',#201,.T.);
#53=FACE_BOUND('',#202,.T.);
#54=FACE_BOUND('',#203,.T.);
#55=FACE_BOUND('',#204,.T.);
#56=FACE_BOUND('',#218,.T.);
#57=FACE_BOUND('',#219,.T.);
#58=FACE_BOUND('',#220,.T.);
#59=FACE_BOUND('',#221,.T.);
#60=FACE_BOUND('',#222,.T.);
#61=FACE_BOUND('',#223,.T.);
#62=FACE_BOUND('',#224,.T.);
#63=FACE_BOUND('',#225,.T.);
#64=FACE_BOUND('',#226,.T.);
#65=FACE_BOUND('',#244,.T.);
#66=FACE_BOUND('',#245,.T.);
#67=FACE_BOUND('',#246,.T.);
#68=FACE_BOUND('',#247,.T.);
#69=FACE_BOUND('',#248,.T.);
#70=FACE_BOUND('',#249,.T.);
#71=FACE_BOUND('',#250,.T.);
#72=FACE_BOUND('',#251,.T.);
#73=FACE_BOUND('',#252,.T.);
#74=CIRCLE('',#1235,1.49999999999999);
#75=CIRCLE('',#1236,1.5);
#76=CIRCLE('',#1237,1.5);
#77=CIRCLE('',#1238,1.5);
#78=CIRCLE('',#1239,1.5);
#79=CIRCLE('',#1240,1.5);
#80=CIRCLE('',#1241,1.5);
#81=CIRCLE('',#1242,1.5);
#82=CIRCLE('',#1249,1.5);
#83=CIRCLE('',#1251,1.5);
#84=CIRCLE('',#1253,1.5);
#85=CIRCLE('',#1255,1.5);
#86=CIRCLE('',#1257,1.5);
#87=CIRCLE('',#1258,1.5);
#88=CIRCLE('',#1259,1.5);
#89=CIRCLE('',#1260,1.49999999999999);
#90=CIRCLE('',#1280,1.5);
#91=CIRCLE('',#1281,1.49999999999999);
#92=CIRCLE('',#1282,1.5);
#93=CIRCLE('',#1283,1.5);
#94=CIRCLE('',#1284,1.5);
#95=CIRCLE('',#1285,1.5);
#96=CIRCLE('',#1286,1.5);
#97=CIRCLE('',#1287,1.5);
#98=CIRCLE('',#1291,1.5);
#99=CIRCLE('',#1293,1.49999999999999);
#100=CIRCLE('',#1295,1.5);
#101=CIRCLE('',#1297,1.5);
#102=CIRCLE('',#1299,1.5);
#103=CIRCLE('',#1301,1.5);
#104=CIRCLE('',#1311,1.5);
#105=CIRCLE('',#1312,1.5);
#106=ELLIPSE('',#1223,9.12937876892108,3.50000000000001);
#107=ELLIPSE('',#1224,9.12937876892106,3.5);
#108=ELLIPSE('',#1225,9.12937876892106,3.5);
#109=ELLIPSE('',#1226,9.12937876892108,3.50000000000001);
#110=ELLIPSE('',#1231,3.78955348176081,3.5);
#111=ELLIPSE('',#1232,3.78955348176081,3.5);
#112=ELLIPSE('',#1233,3.78955348176081,3.5);
#113=ELLIPSE('',#1234,3.78955348176081,3.5);
#114=ELLIPSE('',#1245,3.78955348176081,3.5);
#115=ELLIPSE('',#1247,3.78955348176081,3.5);
#116=ELLIPSE('',#1261,3.78955348176081,3.5);
#117=ELLIPSE('',#1262,3.78955348176081,3.5);
#118=ELLIPSE('',#1264,9.12937876892105,3.5);
#119=ELLIPSE('',#1265,9.12937876892105,3.5);
#120=ELLIPSE('',#1267,9.12937876892106,3.5);
#121=ELLIPSE('',#1268,9.12937876892106,3.5);
#122=FACE_OUTER_BOUND('',#174,.T.);
#123=FACE_OUTER_BOUND('',#175,.T.);
#124=FACE_OUTER_BOUND('',#176,.T.);
#125=FACE_OUTER_BOUND('',#177,.T.);
#126=FACE_OUTER_BOUND('',#178,.T.);
#127=FACE_OUTER_BOUND('',#179,.T.);
#128=FACE_OUTER_BOUND('',#188,.T.);
#129=FACE_OUTER_BOUND('',#189,.T.);
#130=FACE_OUTER_BOUND('',#190,.T.);
#131=FACE_OUTER_BOUND('',#191,.T.);
#132=FACE_OUTER_BOUND('',#192,.T.);
#133=FACE_OUTER_BOUND('',#193,.T.);
#134=FACE_OUTER_BOUND('',#194,.T.);
#135=FACE_OUTER_BOUND('',#195,.T.);
#136=FACE_OUTER_BOUND('',#205,.T.);
#137=FACE_OUTER_BOUND('',#206,.T.);
#138=FACE_OUTER_BOUND('',#207,.T.);
#139=FACE_OUTER_BOUND('',#208,.T.);
#140=FACE_OUTER_BOUND('',#209,.T.);
#141=FACE_OUTER_BOUND('',#210,.T.);
#142=FACE_OUTER_BOUND('',#211,.T.);
#143=FACE_OUTER_BOUND('',#212,.T.);
#144=FACE_OUTER_BOUND('',#213,.T.);
#145=FACE_OUTER_BOUND('',#214,.T.);
#146=FACE_OUTER_BOUND('',#215,.T.);
#147=FACE_OUTER_BOUND('',#216,.T.);
#148=FACE_OUTER_BOUND('',#217,.T.);
#149=FACE_OUTER_BOUND('',#227,.T.);
#150=FACE_OUTER_BOUND('',#228,.T.);
#151=FACE_OUTER_BOUND('',#229,.T.);
#152=FACE_OUTER_BOUND('',#230,.T.);
#153=FACE_OUTER_BOUND('',#231,.T.);
#154=FACE_OUTER_BOUND('',#232,.T.);
#155=FACE_OUTER_BOUND('',#233,.T.);
#156=FACE_OUTER_BOUND('',#234,.T.);
#157=FACE_OUTER_BOUND('',#235,.T.);
#158=FACE_OUTER_BOUND('',#236,.T.);
#159=FACE_OUTER_BOUND('',#237,.T.);
#160=FACE_OUTER_BOUND('',#238,.T.);
#161=FACE_OUTER_BOUND('',#239,.T.);
#162=FACE_OUTER_BOUND('',#240,.T.);
#163=FACE_OUTER_BOUND('',#241,.T.);
#164=FACE_OUTER_BOUND('',#242,.T.);
#165=FACE_OUTER_BOUND('',#243,.T.);
#166=FACE_OUTER_BOUND('',#253,.T.);
#167=FACE_OUTER_BOUND('',#254,.T.);
#168=FACE_OUTER_BOUND('',#255,.T.);
#169=FACE_OUTER_BOUND('',#256,.T.);
#170=FACE_OUTER_BOUND('',#257,.T.);
#171=FACE_OUTER_BOUND('',#258,.T.);
#172=FACE_OUTER_BOUND('',#259,.T.);
#173=FACE_OUTER_BOUND('',#260,.T.);
#174=EDGE_LOOP('',(#784,#785,#786,#787));
#175=EDGE_LOOP('',(#788,#789,#790,#791,#792,#793,#794,#795,#796,#797,#798,
#799,#800,#801,#802,#803,#804,#805,#806,#807,#808,#809,#810,#811));
#176=EDGE_LOOP('',(#812,#813,#814,#815));
#177=EDGE_LOOP('',(#816,#817,#818,#819));
#178=EDGE_LOOP('',(#820,#821,#822,#823,#824,#825));
#179=EDGE_LOOP('',(#826,#827,#828,#829,#830,#831,#832,#833,#834,#835,#836,
#837,#838,#839,#840,#841,#842,#843,#844,#845,#846,#847,#848,#849,#850,#851,
#852,#853,#854,#855,#856,#857));
#180=EDGE_LOOP('',(#858));
#181=EDGE_LOOP('',(#859));
#182=EDGE_LOOP('',(#860));
#183=EDGE_LOOP('',(#861));
#184=EDGE_LOOP('',(#862));
#185=EDGE_LOOP('',(#863));
#186=EDGE_LOOP('',(#864));
#187=EDGE_LOOP('',(#865));
#188=EDGE_LOOP('',(#866,#867,#868,#869));
#189=EDGE_LOOP('',(#870,#871,#872,#873));
#190=EDGE_LOOP('',(#874,#875,#876,#877));
#191=EDGE_LOOP('',(#878,#879,#880,#881));
#192=EDGE_LOOP('',(#882,#883,#884,#885));
#193=EDGE_LOOP('',(#886,#887,#888,#889));
#194=EDGE_LOOP('',(#890,#891,#892,#893));
#195=EDGE_LOOP('',(#894,#895,#896,#897,#898,#899,#900,#901));
#196=EDGE_LOOP('',(#902));
#197=EDGE_LOOP('',(#903));
#198=EDGE_LOOP('',(#904));
#199=EDGE_LOOP('',(#905));
#200=EDGE_LOOP('',(#906));
#201=EDGE_LOOP('',(#907));
#202=EDGE_LOOP('',(#908));
#203=EDGE_LOOP('',(#909));
#204=EDGE_LOOP('',(#910,#911,#912,#913,#914,#915,#916,#917));
#205=EDGE_LOOP('',(#918,#919,#920,#921));
#206=EDGE_LOOP('',(#922,#923,#924,#925));
#207=EDGE_LOOP('',(#926,#927,#928,#929));
#208=EDGE_LOOP('',(#930,#931,#932,#933));
#209=EDGE_LOOP('',(#934,#935,#936,#937));
#210=EDGE_LOOP('',(#938,#939,#940,#941));
#211=EDGE_LOOP('',(#942,#943,#944,#945));
#212=EDGE_LOOP('',(#946,#947,#948,#949));
#213=EDGE_LOOP('',(#950,#951,#952,#953));
#214=EDGE_LOOP('',(#954,#955,#956,#957));
#215=EDGE_LOOP('',(#958,#959,#960,#961));
#216=EDGE_LOOP('',(#962,#963,#964,#965));
#217=EDGE_LOOP('',(#966,#967,#968,#969));
#218=EDGE_LOOP('',(#970));
#219=EDGE_LOOP('',(#971));
#220=EDGE_LOOP('',(#972));
#221=EDGE_LOOP('',(#973));
#222=EDGE_LOOP('',(#974,#975,#976,#977));
#223=EDGE_LOOP('',(#978));
#224=EDGE_LOOP('',(#979));
#225=EDGE_LOOP('',(#980));
#226=EDGE_LOOP('',(#981));
#227=EDGE_LOOP('',(#982,#983,#984,#985,#986));
#228=EDGE_LOOP('',(#987,#988,#989,#990,#991));
#229=EDGE_LOOP('',(#992,#993,#994,#995));
#230=EDGE_LOOP('',(#996,#997,#998,#999));
#231=EDGE_LOOP('',(#1000,#1001,#1002,#1003));
#232=EDGE_LOOP('',(#1004,#1005,#1006,#1007));
#233=EDGE_LOOP('',(#1008,#1009,#1010,#1011));
#234=EDGE_LOOP('',(#1012,#1013,#1014,#1015));
#235=EDGE_LOOP('',(#1016,#1017,#1018,#1019));
#236=EDGE_LOOP('',(#1020,#1021,#1022,#1023));
#237=EDGE_LOOP('',(#1024,#1025,#1026,#1027));
#238=EDGE_LOOP('',(#1028,#1029,#1030,#1031));
#239=EDGE_LOOP('',(#1032,#1033,#1034,#1035));
#240=EDGE_LOOP('',(#1036,#1037,#1038,#1039,#1040,#1041,#1042,#1043));
#241=EDGE_LOOP('',(#1044,#1045,#1046,#1047));
#242=EDGE_LOOP('',(#1048,#1049,#1050,#1051,#1052,#1053,#1054));
#243=EDGE_LOOP('',(#1055,#1056,#1057,#1058,#1059,#1060,#1061,#1062,#1063,
#1064));
#244=EDGE_LOOP('',(#1065));
#245=EDGE_LOOP('',(#1066));
#246=EDGE_LOOP('',(#1067));
#247=EDGE_LOOP('',(#1068));
#248=EDGE_LOOP('',(#1069));
#249=EDGE_LOOP('',(#1070));
#250=EDGE_LOOP('',(#1071));
#251=EDGE_LOOP('',(#1072,#1073,#1074,#1075));
#252=EDGE_LOOP('',(#1076));
#253=EDGE_LOOP('',(#1077,#1078,#1079,#1080));
#254=EDGE_LOOP('',(#1081,#1082,#1083,#1084));
#255=EDGE_LOOP('',(#1085,#1086,#1087,#1088));
#256=EDGE_LOOP('',(#1089,#1090,#1091,#1092,#1093,#1094));
#257=EDGE_LOOP('',(#1095,#1096,#1097,#1098,#1099,#1100,#1101,#1102));
#258=EDGE_LOOP('',(#1103,#1104,#1105,#1106));
#259=EDGE_LOOP('',(#1107,#1108,#1109,#1110,#1111,#1112,#1113,#1114));
#260=EDGE_LOOP('',(#1115,#1116,#1117,#1118,#1119,#1120,#1121));
#261=LINE('',#1654,#382);
#262=LINE('',#1656,#383);
#263=LINE('',#1658,#384);
#264=LINE('',#1659,#385);
#265=LINE('',#1662,#386);
#266=LINE('',#1664,#387);
#267=LINE('',#1666,#388);
#268=LINE('',#1668,#389);
#269=LINE('',#1672,#390);
#270=LINE('',#1676,#391);
#271=LINE('',#1678,#392);
#272=LINE('',#1680,#393);
#273=LINE('',#1682,#394);
#274=LINE('',#1684,#395);
#275=LINE('',#1688,#396);
#276=LINE('',#1690,#397);
#277=LINE('',#1692,#398);
#278=LINE('',#1694,#399);
#279=LINE('',#1696,#400);
#280=LINE('',#1698,#401);
#281=LINE('',#1700,#402);
#282=LINE('',#1702,#403);
#283=LINE('',#1704,#404);
#284=LINE('',#1708,#405);
#285=LINE('',#1710,#406);
#286=LINE('',#1711,#407);
#287=LINE('',#1714,#408);
#288=LINE('',#1715,#409);
#289=LINE('',#1718,#410);
#290=LINE('',#1720,#411);
#291=LINE('',#1722,#412);
#292=LINE('',#1724,#413);
#293=LINE('',#1725,#414);
#294=LINE('',#1728,#415);
#295=LINE('',#1731,#416);
#296=LINE('',#1732,#417);
#297=LINE('',#1734,#418);
#298=LINE('',#1736,#419);
#299=LINE('',#1738,#420);
#300=LINE('',#1740,#421);
#301=LINE('',#1742,#422);
#302=LINE('',#1744,#423);
#303=LINE('',#1745,#424);
#304=LINE('',#1746,#425);
#305=LINE('',#1749,#426);
#306=LINE('',#1751,#427);
#307=LINE('',#1753,#428);
#308=LINE('',#1755,#429);
#309=LINE('',#1759,#430);
#310=LINE('',#1763,#431);
#311=LINE('',#1765,#432);
#312=LINE('',#1766,#433);
#313=LINE('',#1785,#434);
#314=LINE('',#1786,#435);
#315=LINE('',#1793,#436);
#316=LINE('',#1797,#437);
#317=LINE('',#1801,#438);
#318=LINE('',#1805,#439);
#319=LINE('',#1809,#440);
#320=LINE('',#1810,#441);
#321=LINE('',#1823,#442);
#322=LINE('',#1825,#443);
#323=LINE('',#1827,#444);
#324=LINE('',#1829,#445);
#325=LINE('',#1831,#446);
#326=LINE('',#1834,#447);
#327=LINE('',#1842,#448);
#328=LINE('',#1844,#449);
#329=LINE('',#1847,#450);
#330=LINE('',#1849,#451);
#331=LINE('',#1851,#452);
#332=LINE('',#1853,#453);
#333=LINE('',#1855,#454);
#334=LINE('',#1857,#455);
#335=LINE('',#1859,#456);
#336=LINE('',#1863,#457);
#337=LINE('',#1865,#458);
#338=LINE('',#1867,#459);
#339=LINE('',#1868,#460);
#340=LINE('',#1879,#461);
#341=LINE('',#1881,#462);
#342=LINE('',#1883,#463);
#343=LINE('',#1884,#464);
#344=LINE('',#1895,#465);
#345=LINE('',#1896,#466);
#346=LINE('',#1900,#467);
#347=LINE('',#1901,#468);
#348=LINE('',#1902,#469);
#349=LINE('',#1905,#470);
#350=LINE('',#1909,#471);
#351=LINE('',#1913,#472);
#352=LINE('',#1917,#473);
#353=LINE('',#1921,#474);
#354=LINE('',#1925,#475);
#355=LINE('',#1930,#476);
#356=LINE('',#1931,#477);
#357=LINE('',#1932,#478);
#358=LINE('',#1935,#479);
#359=LINE('',#1936,#480);
#360=LINE('',#1939,#481);
#361=LINE('',#1940,#482);
#362=LINE('',#1942,#483);
#363=LINE('',#1945,#484);
#364=LINE('',#1947,#485);
#365=LINE('',#1948,#486);
#366=LINE('',#1951,#487);
#367=LINE('',#1953,#488);
#368=LINE('',#1954,#489);
#369=LINE('',#1955,#490);
#370=LINE('',#1956,#491);
#371=LINE('',#1959,#492);
#372=LINE('',#1960,#493);
#373=LINE('',#1962,#494);
#374=LINE('',#1963,#495);
#375=LINE('',#1965,#496);
#376=LINE('',#1966,#497);
#377=LINE('',#1973,#498);
#378=LINE('',#1975,#499);
#379=LINE('',#1977,#500);
#380=LINE('',#1978,#501);
#381=LINE('',#1980,#502);
#382=VECTOR('',#1328,10.);
#383=VECTOR('',#1329,10.);
#384=VECTOR('',#1330,10.);
#385=VECTOR('',#1331,10.);
#386=VECTOR('',#1334,10.);
#387=VECTOR('',#1335,10.);
#388=VECTOR('',#1336,10.);
#389=VECTOR('',#1337,10.);
#390=VECTOR('',#1340,10.);
#391=VECTOR('',#1343,10.);
#392=VECTOR('',#1344,10.);
#393=VECTOR('',#1345,10.);
#394=VECTOR('',#1346,10.);
#395=VECTOR('',#1347,10.);
#396=VECTOR('',#1350,10.);
#397=VECTOR('',#1351,10.);
#398=VECTOR('',#1352,10.);
#399=VECTOR('',#1353,10.);
#400=VECTOR('',#1354,10.);
#401=VECTOR('',#1355,10.);
#402=VECTOR('',#1356,10.);
#403=VECTOR('',#1357,10.);
#404=VECTOR('',#1358,10.);
#405=VECTOR('',#1363,10.);
#406=VECTOR('',#1364,10.);
#407=VECTOR('',#1365,10.);
#408=VECTOR('',#1368,10.);
#409=VECTOR('',#1369,10.);
#410=VECTOR('',#1372,10.);
#411=VECTOR('',#1373,10.);
#412=VECTOR('',#1374,10.);
#413=VECTOR('',#1375,10.);
#414=VECTOR('',#1376,10.);
#415=VECTOR('',#1379,10.);
#416=VECTOR('',#1382,10.);
#417=VECTOR('',#1383,10.);
#418=VECTOR('',#1384,10.);
#419=VECTOR('',#1385,10.);
#420=VECTOR('',#1386,10.);
#421=VECTOR('',#1387,10.);
#422=VECTOR('',#1388,10.);
#423=VECTOR('',#1389,10.);
#424=VECTOR('',#1390,10.);
#425=VECTOR('',#1391,10.);
#426=VECTOR('',#1394,10.);
#427=VECTOR('',#1395,10.);
#428=VECTOR('',#1396,10.);
#429=VECTOR('',#1397,10.);
#430=VECTOR('',#1400,10.);
#431=VECTOR('',#1403,10.);
#432=VECTOR('',#1404,10.);
#433=VECTOR('',#1405,10.);
#434=VECTOR('',#1424,10.);
#435=VECTOR('',#1425,10.);
#436=VECTOR('',#1436,1.5);
#437=VECTOR('',#1441,1.5);
#438=VECTOR('',#1446,1.5);
#439=VECTOR('',#1451,1.5);
#440=VECTOR('',#1456,10.);
#441=VECTOR('',#1457,10.);
#442=VECTOR('',#1468,10.);
#443=VECTOR('',#1469,10.);
#444=VECTOR('',#1470,10.);
#445=VECTOR('',#1471,10.);
#446=VECTOR('',#1472,10.);
#447=VECTOR('',#1475,10.);
#448=VECTOR('',#1490,10.);
#449=VECTOR('',#1493,10.);
#450=VECTOR('',#1498,10.);
#451=VECTOR('',#1501,10.);
#452=VECTOR('',#1504,1.49999999999999);
#453=VECTOR('',#1507,1.5);
#454=VECTOR('',#1510,1.5);
#455=VECTOR('',#1513,1.5);
#456=VECTOR('',#1516,10.);
#457=VECTOR('',#1519,10.);
#458=VECTOR('',#1520,10.);
#459=VECTOR('',#1521,10.);
#460=VECTOR('',#1522,10.);
#461=VECTOR('',#1531,10.);
#462=VECTOR('',#1532,10.);
#463=VECTOR('',#1533,10.);
#464=VECTOR('',#1534,10.);
#465=VECTOR('',#1545,10.);
#466=VECTOR('',#1546,10.);
#467=VECTOR('',#1549,10.);
#468=VECTOR('',#1550,10.);
#469=VECTOR('',#1551,10.);
#470=VECTOR('',#1554,1.5);
#471=VECTOR('',#1559,1.49999999999999);
#472=VECTOR('',#1564,1.5);
#473=VECTOR('',#1569,1.5);
#474=VECTOR('',#1574,1.5);
#475=VECTOR('',#1579,1.5);
#476=VECTOR('',#1584,10.);
#477=VECTOR('',#1585,10.);
#478=VECTOR('',#1586,10.);
#479=VECTOR('',#1589,10.);
#480=VECTOR('',#1590,10.);
#481=VECTOR('',#1593,10.);
#482=VECTOR('',#1594,10.);
#483=VECTOR('',#1597,10.);
#484=VECTOR('',#1600,10.);
#485=VECTOR('',#1601,10.);
#486=VECTOR('',#1602,10.);
#487=VECTOR('',#1605,10.);
#488=VECTOR('',#1606,10.);
#489=VECTOR('',#1607,10.);
#490=VECTOR('',#1608,10.);
#491=VECTOR('',#1609,10.);
#492=VECTOR('',#1614,10.);
#493=VECTOR('',#1615,10.);
#494=VECTOR('',#1618,10.);
#495=VECTOR('',#1619,10.);
#496=VECTOR('',#1620,10.);
#497=VECTOR('',#1621,10.);
#498=VECTOR('',#1630,1.5);
#499=VECTOR('',#1633,1.5);
#500=VECTOR('',#1636,10.);
#501=VECTOR('',#1637,10.);
#502=VECTOR('',#1640,10.);
#503=VERTEX_POINT('',#1652);
#504=VERTEX_POINT('',#1653);
#505=VERTEX_POINT('',#1655);
#506=VERTEX_POINT('',#1657);
#507=VERTEX_POINT('',#1661);
#508=VERTEX_POINT('',#1663);
#509=VERTEX_POINT('',#1665);
#510=VERTEX_POINT('',#1667);
#511=VERTEX_POINT('',#1669);
#512=VERTEX_POINT('',#1671);
#513=VERTEX_POINT('',#1673);
#514=VERTEX_POINT('',#1675);
#515=VERTEX_POINT('',#1677);
#516=VERTEX_POINT('',#1679);
#517=VERTEX_POINT('',#1681);
#518=VERTEX_POINT('',#1683);
#519=VERTEX_POINT('',#1685);
#520=VERTEX_POINT('',#1687);
#521=VERTEX_POINT('',#1689);
#522=VERTEX_POINT('',#1691);
#523=VERTEX_POINT('',#1693);
#524=VERTEX_POINT('',#1695);
#525=VERTEX_POINT('',#1697);
#526=VERTEX_POINT('',#1699);
#527=VERTEX_POINT('',#1701);
#528=VERTEX_POINT('',#1703);
#529=VERTEX_POINT('',#1707);
#530=VERTEX_POINT('',#1709);
#531=VERTEX_POINT('',#1713);
#532=VERTEX_POINT('',#1717);
#533=VERTEX_POINT('',#1719);
#534=VERTEX_POINT('',#1721);
#535=VERTEX_POINT('',#1723);
#536=VERTEX_POINT('',#1727);
#537=VERTEX_POINT('',#1730);
#538=VERTEX_POINT('',#1733);
#539=VERTEX_POINT('',#1735);
#540=VERTEX_POINT('',#1737);
#541=VERTEX_POINT('',#1739);
#542=VERTEX_POINT('',#1741);
#543=VERTEX_POINT('',#1743);
#544=VERTEX_POINT('',#1748);
#545=VERTEX_POINT('',#1750);
#546=VERTEX_POINT('',#1752);
#547=VERTEX_POINT('',#1754);
#548=VERTEX_POINT('',#1756);
#549=VERTEX_POINT('',#1758);
#550=VERTEX_POINT('',#1760);
#551=VERTEX_POINT('',#1762);
#552=VERTEX_POINT('',#1764);
#553=VERTEX_POINT('',#1767);
#554=VERTEX_POINT('',#1769);
#555=VERTEX_POINT('',#1771);
#556=VERTEX_POINT('',#1773);
#557=VERTEX_POINT('',#1775);
#558=VERTEX_POINT('',#1777);
#559=VERTEX_POINT('',#1779);
#560=VERTEX_POINT('',#1781);
#561=VERTEX_POINT('',#1784);
#562=VERTEX_POINT('',#1792);
#563=VERTEX_POINT('',#1796);
#564=VERTEX_POINT('',#1800);
#565=VERTEX_POINT('',#1804);
#566=VERTEX_POINT('',#1808);
#567=VERTEX_POINT('',#1811);
#568=VERTEX_POINT('',#1813);
#569=VERTEX_POINT('',#1815);
#570=VERTEX_POINT('',#1817);
#571=VERTEX_POINT('',#1819);
#572=VERTEX_POINT('',#1820);
#573=VERTEX_POINT('',#1822);
#574=VERTEX_POINT('',#1824);
#575=VERTEX_POINT('',#1826);
#576=VERTEX_POINT('',#1828);
#577=VERTEX_POINT('',#1830);
#578=VERTEX_POINT('',#1832);
#579=VERTEX_POINT('',#1861);
#580=VERTEX_POINT('',#1862);
#581=VERTEX_POINT('',#1864);
#582=VERTEX_POINT('',#1866);
#583=VERTEX_POINT('',#1869);
#584=VERTEX_POINT('',#1871);
#585=VERTEX_POINT('',#1873);
#586=VERTEX_POINT('',#1875);
#587=VERTEX_POINT('',#1877);
#588=VERTEX_POINT('',#1878);
#589=VERTEX_POINT('',#1880);
#590=VERTEX_POINT('',#1882);
#591=VERTEX_POINT('',#1885);
#592=VERTEX_POINT('',#1887);
#593=VERTEX_POINT('',#1889);
#594=VERTEX_POINT('',#1891);
#595=VERTEX_POINT('',#1894);
#596=VERTEX_POINT('',#1898);
#597=VERTEX_POINT('',#1899);
#598=VERTEX_POINT('',#1904);
#599=VERTEX_POINT('',#1908);
#600=VERTEX_POINT('',#1912);
#601=VERTEX_POINT('',#1916);
#602=VERTEX_POINT('',#1920);
#603=VERTEX_POINT('',#1924);
#604=VERTEX_POINT('',#1928);
#605=VERTEX_POINT('',#1929);
#606=VERTEX_POINT('',#1934);
#607=VERTEX_POINT('',#1938);
#608=VERTEX_POINT('',#1944);
#609=VERTEX_POINT('',#1946);
#610=VERTEX_POINT('',#1950);
#611=VERTEX_POINT('',#1952);
#612=VERTEX_POINT('',#1964);
#613=VERTEX_POINT('',#1967);
#614=VERTEX_POINT('',#1969);
#615=EDGE_CURVE('',#503,#504,#261,.T.);
#616=EDGE_CURVE('',#505,#503,#262,.T.);
#617=EDGE_CURVE('',#506,#505,#263,.T.);
#618=EDGE_CURVE('',#504,#506,#264,.T.);
#619=EDGE_CURVE('',#507,#506,#265,.T.);
#620=EDGE_CURVE('',#505,#508,#266,.T.);
#621=EDGE_CURVE('',#508,#509,#267,.T.);
#622=EDGE_CURVE('',#510,#509,#268,.T.);
#623=EDGE_CURVE('',#511,#510,#106,.T.);
#624=EDGE_CURVE('',#512,#511,#269,.F.);
#625=EDGE_CURVE('',#512,#513,#107,.T.);
#626=EDGE_CURVE('',#513,#514,#270,.T.);
#627=EDGE_CURVE('',#515,#514,#271,.T.);
#628=EDGE_CURVE('',#515,#516,#272,.T.);
#629=EDGE_CURVE('',#516,#517,#273,.T.);
#630=EDGE_CURVE('',#518,#517,#274,.T.);
#631=EDGE_CURVE('',#519,#518,#108,.T.);
#632=EDGE_CURVE('',#520,#519,#275,.F.);
#633=EDGE_CURVE('',#521,#520,#276,.F.);
#634=EDGE_CURVE('',#522,#521,#277,.T.);
#635=EDGE_CURVE('',#523,#522,#278,.F.);
#636=EDGE_CURVE('',#523,#524,#279,.T.);
#637=EDGE_CURVE('',#525,#524,#280,.T.);
#638=EDGE_CURVE('',#526,#525,#281,.T.);
#639=EDGE_CURVE('',#527,#526,#282,.T.);
#640=EDGE_CURVE('',#528,#527,#283,.F.);
#641=EDGE_CURVE('',#528,#507,#109,.T.);
#642=EDGE_CURVE('',#517,#529,#284,.T.);
#643=EDGE_CURVE('',#530,#516,#285,.T.);
#644=EDGE_CURVE('',#529,#530,#286,.T.);
#645=EDGE_CURVE('',#515,#531,#287,.T.);
#646=EDGE_CURVE('',#531,#530,#288,.T.);
#647=EDGE_CURVE('',#532,#504,#289,.T.);
#648=EDGE_CURVE('',#532,#533,#290,.F.);
#649=EDGE_CURVE('',#534,#533,#291,.T.);
#650=EDGE_CURVE('',#535,#534,#292,.T.);
#651=EDGE_CURVE('',#535,#503,#293,.T.);
#652=EDGE_CURVE('',#536,#514,#294,.T.);
#653=EDGE_CURVE('',#513,#518,#110,.T.);
#654=EDGE_CURVE('',#537,#529,#295,.T.);
#655=EDGE_CURVE('',#522,#537,#296,.T.);
#656=EDGE_CURVE('',#521,#538,#297,.T.);
#657=EDGE_CURVE('',#538,#539,#298,.T.);
#658=EDGE_CURVE('',#540,#539,#299,.T.);
#659=EDGE_CURVE('',#541,#540,#300,.T.);
#660=EDGE_CURVE('',#542,#541,#301,.T.);
#661=EDGE_CURVE('',#542,#543,#302,.T.);
#662=EDGE_CURVE('',#543,#526,#303,.T.);
#663=EDGE_CURVE('',#532,#525,#304,.F.);
#664=EDGE_CURVE('',#507,#510,#111,.T.);
#665=EDGE_CURVE('',#509,#544,#305,.T.);
#666=EDGE_CURVE('',#544,#545,#306,.T.);
#667=EDGE_CURVE('',#545,#546,#307,.T.);
#668=EDGE_CURVE('',#546,#547,#308,.T.);
#669=EDGE_CURVE('',#547,#548,#112,.T.);
#670=EDGE_CURVE('',#548,#549,#309,.T.);
#671=EDGE_CURVE('',#549,#550,#113,.T.);
#672=EDGE_CURVE('',#550,#551,#310,.T.);
#673=EDGE_CURVE('',#551,#552,#311,.T.);
#674=EDGE_CURVE('',#552,#536,#312,.T.);
#675=EDGE_CURVE('',#553,#553,#74,.T.);
#676=EDGE_CURVE('',#554,#554,#75,.T.);
#677=EDGE_CURVE('',#555,#555,#76,.T.);
#678=EDGE_CURVE('',#556,#556,#77,.T.);
#679=EDGE_CURVE('',#557,#557,#78,.T.);
#680=EDGE_CURVE('',#558,#558,#79,.T.);
#681=EDGE_CURVE('',#559,#559,#80,.T.);
#682=EDGE_CURVE('',#560,#560,#81,.T.);
#683=EDGE_CURVE('',#520,#561,#313,.F.);
#684=EDGE_CURVE('',#561,#538,#314,.F.);
#685=EDGE_CURVE('',#512,#519,#114,.T.);
#686=EDGE_CURVE('',#528,#511,#115,.T.);
#687=EDGE_CURVE('',#558,#562,#315,.T.);
#688=EDGE_CURVE('',#562,#562,#82,.T.);
#689=EDGE_CURVE('',#557,#563,#316,.T.);
#690=EDGE_CURVE('',#563,#563,#83,.T.);
#691=EDGE_CURVE('',#559,#564,#317,.T.);
#692=EDGE_CURVE('',#564,#564,#84,.T.);
#693=EDGE_CURVE('',#560,#565,#318,.T.);
#694=EDGE_CURVE('',#565,#565,#85,.T.);
#695=EDGE_CURVE('',#566,#527,#319,.T.);
#696=EDGE_CURVE('',#561,#566,#320,.T.);
#697=EDGE_CURVE('',#567,#567,#86,.T.);
#698=EDGE_CURVE('',#568,#568,#87,.T.);
#699=EDGE_CURVE('',#569,#569,#88,.T.);
#700=EDGE_CURVE('',#570,#570,#89,.T.);
#701=EDGE_CURVE('',#571,#572,#116,.T.);
#702=EDGE_CURVE('',#572,#573,#321,.T.);
#703=EDGE_CURVE('',#573,#574,#322,.T.);
#704=EDGE_CURVE('',#574,#575,#323,.T.);
#705=EDGE_CURVE('',#575,#576,#324,.T.);
#706=EDGE_CURVE('',#576,#577,#325,.T.);
#707=EDGE_CURVE('',#577,#578,#117,.T.);
#708=EDGE_CURVE('',#578,#571,#326,.T.);
#709=EDGE_CURVE('',#548,#571,#118,.T.);
#710=EDGE_CURVE('',#572,#547,#119,.T.);
#711=EDGE_CURVE('',#550,#577,#120,.T.);
#712=EDGE_CURVE('',#578,#549,#121,.T.);
#713=EDGE_CURVE('',#546,#573,#327,.T.);
#714=EDGE_CURVE('',#551,#576,#328,.T.);
#715=EDGE_CURVE('',#545,#574,#329,.T.);
#716=EDGE_CURVE('',#552,#575,#330,.T.);
#717=EDGE_CURVE('',#553,#570,#331,.T.);
#718=EDGE_CURVE('',#554,#569,#332,.T.);
#719=EDGE_CURVE('',#556,#567,#333,.T.);
#720=EDGE_CURVE('',#555,#568,#334,.T.);
#721=EDGE_CURVE('',#543,#566,#335,.T.);
#722=EDGE_CURVE('',#579,#580,#336,.T.);
#723=EDGE_CURVE('',#581,#579,#337,.T.);
#724=EDGE_CURVE('',#581,#582,#338,.T.);
#725=EDGE_CURVE('',#580,#582,#339,.T.);
#726=EDGE_CURVE('',#583,#583,#90,.F.);
#727=EDGE_CURVE('',#584,#584,#91,.F.);
#728=EDGE_CURVE('',#585,#585,#92,.F.);
#729=EDGE_CURVE('',#586,#586,#93,.F.);
#730=EDGE_CURVE('',#587,#588,#340,.F.);
#731=EDGE_CURVE('',#588,#589,#341,.F.);
#732=EDGE_CURVE('',#589,#590,#342,.F.);
#733=EDGE_CURVE('',#590,#587,#343,.F.);
#734=EDGE_CURVE('',#591,#591,#94,.F.);
#735=EDGE_CURVE('',#592,#592,#95,.F.);
#736=EDGE_CURVE('',#593,#593,#96,.F.);
#737=EDGE_CURVE('',#594,#594,#97,.F.);
#738=EDGE_CURVE('',#531,#595,#344,.T.);
#739=EDGE_CURVE('',#536,#595,#345,.T.);
#740=EDGE_CURVE('',#596,#597,#346,.T.);
#741=EDGE_CURVE('',#544,#596,#347,.T.);
#742=EDGE_CURVE('',#597,#508,#348,.T.);
#743=EDGE_CURVE('',#586,#598,#349,.T.);
#744=EDGE_CURVE('',#598,#598,#98,.T.);
#745=EDGE_CURVE('',#584,#599,#350,.T.);
#746=EDGE_CURVE('',#599,#599,#99,.T.);
#747=EDGE_CURVE('',#585,#600,#351,.T.);
#748=EDGE_CURVE('',#600,#600,#100,.T.);
#749=EDGE_CURVE('',#592,#601,#352,.T.);
#750=EDGE_CURVE('',#601,#601,#101,.T.);
#751=EDGE_CURVE('',#583,#602,#353,.T.);
#752=EDGE_CURVE('',#602,#602,#102,.T.);
#753=EDGE_CURVE('',#594,#603,#354,.T.);
#754=EDGE_CURVE('',#603,#603,#103,.T.);
#755=EDGE_CURVE('',#604,#605,#355,.T.);
#756=EDGE_CURVE('',#589,#604,#356,.T.);
#757=EDGE_CURVE('',#588,#605,#357,.T.);
#758=EDGE_CURVE('',#606,#604,#358,.T.);
#759=EDGE_CURVE('',#590,#606,#359,.T.);
#760=EDGE_CURVE('',#607,#606,#360,.T.);
#761=EDGE_CURVE('',#587,#607,#361,.T.);
#762=EDGE_CURVE('',#605,#607,#362,.T.);
#763=EDGE_CURVE('',#541,#608,#363,.T.);
#764=EDGE_CURVE('',#609,#540,#364,.T.);
#765=EDGE_CURVE('',#609,#608,#365,.T.);
#766=EDGE_CURVE('',#610,#523,#366,.F.);
#767=EDGE_CURVE('',#610,#611,#367,.T.);
#768=EDGE_CURVE('',#611,#579,#368,.T.);
#769=EDGE_CURVE('',#580,#534,#369,.T.);
#770=EDGE_CURVE('',#524,#533,#370,.T.);
#771=EDGE_CURVE('',#582,#542,#371,.T.);
#772=EDGE_CURVE('',#608,#535,#372,.T.);
#773=EDGE_CURVE('',#595,#596,#373,.T.);
#774=EDGE_CURVE('',#503,#597,#374,.T.);
#775=EDGE_CURVE('',#609,#612,#375,.T.);
#776=EDGE_CURVE('',#530,#612,#376,.T.);
#777=EDGE_CURVE('',#613,#613,#104,.T.);
#778=EDGE_CURVE('',#614,#614,#105,.T.);
#779=EDGE_CURVE('',#591,#614,#377,.T.);
#780=EDGE_CURVE('',#593,#613,#378,.T.);
#781=EDGE_CURVE('',#612,#611,#379,.T.);
#782=EDGE_CURVE('',#610,#537,#380,.T.);
#783=EDGE_CURVE('',#539,#581,#381,.T.);
#784=ORIENTED_EDGE('',*,*,#615,.F.);
#785=ORIENTED_EDGE('',*,*,#616,.F.);
#786=ORIENTED_EDGE('',*,*,#617,.F.);
#787=ORIENTED_EDGE('',*,*,#618,.F.);
#788=ORIENTED_EDGE('',*,*,#619,.T.);
#789=ORIENTED_EDGE('',*,*,#617,.T.);
#790=ORIENTED_EDGE('',*,*,#620,.T.);
#791=ORIENTED_EDGE('',*,*,#621,.T.);
#792=ORIENTED_EDGE('',*,*,#622,.F.);
#793=ORIENTED_EDGE('',*,*,#623,.F.);
#794=ORIENTED_EDGE('',*,*,#624,.F.);
#795=ORIENTED_EDGE('',*,*,#625,.T.);
#796=ORIENTED_EDGE('',*,*,#626,.T.);
#797=ORIENTED_EDGE('',*,*,#627,.F.);
#798=ORIENTED_EDGE('',*,*,#628,.T.);
#799=ORIENTED_EDGE('',*,*,#629,.T.);
#800=ORIENTED_EDGE('',*,*,#630,.F.);
#801=ORIENTED_EDGE('',*,*,#631,.F.);
#802=ORIENTED_EDGE('',*,*,#632,.F.);
#803=ORIENTED_EDGE('',*,*,#633,.F.);
#804=ORIENTED_EDGE('',*,*,#634,.F.);
#805=ORIENTED_EDGE('',*,*,#635,.F.);
#806=ORIENTED_EDGE('',*,*,#636,.T.);
#807=ORIENTED_EDGE('',*,*,#637,.F.);
#808=ORIENTED_EDGE('',*,*,#638,.F.);
#809=ORIENTED_EDGE('',*,*,#639,.F.);
#810=ORIENTED_EDGE('',*,*,#640,.F.);
#811=ORIENTED_EDGE('',*,*,#641,.T.);
#812=ORIENTED_EDGE('',*,*,#642,.F.);
#813=ORIENTED_EDGE('',*,*,#629,.F.);
#814=ORIENTED_EDGE('',*,*,#643,.F.);
#815=ORIENTED_EDGE('',*,*,#644,.F.);
#816=ORIENTED_EDGE('',*,*,#645,.T.);
#817=ORIENTED_EDGE('',*,*,#646,.T.);
#818=ORIENTED_EDGE('',*,*,#643,.T.);
#819=ORIENTED_EDGE('',*,*,#628,.F.);
#820=ORIENTED_EDGE('',*,*,#615,.T.);
#821=ORIENTED_EDGE('',*,*,#647,.F.);
#822=ORIENTED_EDGE('',*,*,#648,.T.);
#823=ORIENTED_EDGE('',*,*,#649,.F.);
#824=ORIENTED_EDGE('',*,*,#650,.F.);
#825=ORIENTED_EDGE('',*,*,#651,.T.);
#826=ORIENTED_EDGE('',*,*,#652,.T.);
#827=ORIENTED_EDGE('',*,*,#626,.F.);
#828=ORIENTED_EDGE('',*,*,#653,.T.);
#829=ORIENTED_EDGE('',*,*,#630,.T.);
#830=ORIENTED_EDGE('',*,*,#642,.T.);
#831=ORIENTED_EDGE('',*,*,#654,.F.);
#832=ORIENTED_EDGE('',*,*,#655,.F.);
#833=ORIENTED_EDGE('',*,*,#634,.T.);
#834=ORIENTED_EDGE('',*,*,#656,.T.);
#835=ORIENTED_EDGE('',*,*,#657,.T.);
#836=ORIENTED_EDGE('',*,*,#658,.F.);
#837=ORIENTED_EDGE('',*,*,#659,.F.);
#838=ORIENTED_EDGE('',*,*,#660,.F.);
#839=ORIENTED_EDGE('',*,*,#661,.T.);
#840=ORIENTED_EDGE('',*,*,#662,.T.);
#841=ORIENTED_EDGE('',*,*,#638,.T.);
#842=ORIENTED_EDGE('',*,*,#663,.F.);
#843=ORIENTED_EDGE('',*,*,#647,.T.);
#844=ORIENTED_EDGE('',*,*,#618,.T.);
#845=ORIENTED_EDGE('',*,*,#619,.F.);
#846=ORIENTED_EDGE('',*,*,#664,.T.);
#847=ORIENTED_EDGE('',*,*,#622,.T.);
#848=ORIENTED_EDGE('',*,*,#665,.T.);
#849=ORIENTED_EDGE('',*,*,#666,.T.);
#850=ORIENTED_EDGE('',*,*,#667,.T.);
#851=ORIENTED_EDGE('',*,*,#668,.T.);
#852=ORIENTED_EDGE('',*,*,#669,.T.);
#853=ORIENTED_EDGE('',*,*,#670,.T.);
#854=ORIENTED_EDGE('',*,*,#671,.T.);
#855=ORIENTED_EDGE('',*,*,#672,.T.);
#856=ORIENTED_EDGE('',*,*,#673,.T.);
#857=ORIENTED_EDGE('',*,*,#674,.T.);
#858=ORIENTED_EDGE('',*,*,#675,.T.);
#859=ORIENTED_EDGE('',*,*,#676,.T.);
#860=ORIENTED_EDGE('',*,*,#677,.T.);
#861=ORIENTED_EDGE('',*,*,#678,.T.);
#862=ORIENTED_EDGE('',*,*,#679,.T.);
#863=ORIENTED_EDGE('',*,*,#680,.T.);
#864=ORIENTED_EDGE('',*,*,#681,.T.);
#865=ORIENTED_EDGE('',*,*,#682,.T.);
#866=ORIENTED_EDGE('',*,*,#656,.F.);
#867=ORIENTED_EDGE('',*,*,#633,.T.);
#868=ORIENTED_EDGE('',*,*,#683,.T.);
#869=ORIENTED_EDGE('',*,*,#684,.T.);
#870=ORIENTED_EDGE('',*,*,#631,.T.);
#871=ORIENTED_EDGE('',*,*,#653,.F.);
#872=ORIENTED_EDGE('',*,*,#625,.F.);
#873=ORIENTED_EDGE('',*,*,#685,.T.);
#874=ORIENTED_EDGE('',*,*,#623,.T.);
#875=ORIENTED_EDGE('',*,*,#664,.F.);
#876=ORIENTED_EDGE('',*,*,#641,.F.);
#877=ORIENTED_EDGE('',*,*,#686,.T.);
#878=ORIENTED_EDGE('',*,*,#680,.F.);
#879=ORIENTED_EDGE('',*,*,#687,.T.);
#880=ORIENTED_EDGE('',*,*,#688,.F.);
#881=ORIENTED_EDGE('',*,*,#687,.F.);
#882=ORIENTED_EDGE('',*,*,#679,.F.);
#883=ORIENTED_EDGE('',*,*,#689,.T.);
#884=ORIENTED_EDGE('',*,*,#690,.F.);
#885=ORIENTED_EDGE('',*,*,#689,.F.);
#886=ORIENTED_EDGE('',*,*,#681,.F.);
#887=ORIENTED_EDGE('',*,*,#691,.T.);
#888=ORIENTED_EDGE('',*,*,#692,.F.);
#889=ORIENTED_EDGE('',*,*,#691,.F.);
#890=ORIENTED_EDGE('',*,*,#682,.F.);
#891=ORIENTED_EDGE('',*,*,#693,.T.);
#892=ORIENTED_EDGE('',*,*,#694,.F.);
#893=ORIENTED_EDGE('',*,*,#693,.F.);
#894=ORIENTED_EDGE('',*,*,#632,.T.);
#895=ORIENTED_EDGE('',*,*,#685,.F.);
#896=ORIENTED_EDGE('',*,*,#624,.T.);
#897=ORIENTED_EDGE('',*,*,#686,.F.);
#898=ORIENTED_EDGE('',*,*,#640,.T.);
#899=ORIENTED_EDGE('',*,*,#695,.F.);
#900=ORIENTED_EDGE('',*,*,#696,.F.);
#901=ORIENTED_EDGE('',*,*,#683,.F.);
#902=ORIENTED_EDGE('',*,*,#690,.T.);
#903=ORIENTED_EDGE('',*,*,#688,.T.);
#904=ORIENTED_EDGE('',*,*,#692,.T.);
#905=ORIENTED_EDGE('',*,*,#694,.T.);
#906=ORIENTED_EDGE('',*,*,#697,.T.);
#907=ORIENTED_EDGE('',*,*,#698,.T.);
#908=ORIENTED_EDGE('',*,*,#699,.T.);
#909=ORIENTED_EDGE('',*,*,#700,.T.);
#910=ORIENTED_EDGE('',*,*,#701,.T.);
#911=ORIENTED_EDGE('',*,*,#702,.T.);
#912=ORIENTED_EDGE('',*,*,#703,.T.);
#913=ORIENTED_EDGE('',*,*,#704,.T.);
#914=ORIENTED_EDGE('',*,*,#705,.T.);
#915=ORIENTED_EDGE('',*,*,#706,.T.);
#916=ORIENTED_EDGE('',*,*,#707,.T.);
#917=ORIENTED_EDGE('',*,*,#708,.T.);
#918=ORIENTED_EDGE('',*,*,#709,.F.);
#919=ORIENTED_EDGE('',*,*,#669,.F.);
#920=ORIENTED_EDGE('',*,*,#710,.F.);
#921=ORIENTED_EDGE('',*,*,#701,.F.);
#922=ORIENTED_EDGE('',*,*,#711,.F.);
#923=ORIENTED_EDGE('',*,*,#671,.F.);
#924=ORIENTED_EDGE('',*,*,#712,.F.);
#925=ORIENTED_EDGE('',*,*,#707,.F.);
#926=ORIENTED_EDGE('',*,*,#710,.T.);
#927=ORIENTED_EDGE('',*,*,#668,.F.);
#928=ORIENTED_EDGE('',*,*,#713,.T.);
#929=ORIENTED_EDGE('',*,*,#702,.F.);
#930=ORIENTED_EDGE('',*,*,#711,.T.);
#931=ORIENTED_EDGE('',*,*,#706,.F.);
#932=ORIENTED_EDGE('',*,*,#714,.F.);
#933=ORIENTED_EDGE('',*,*,#672,.F.);
#934=ORIENTED_EDGE('',*,*,#709,.T.);
#935=ORIENTED_EDGE('',*,*,#708,.F.);
#936=ORIENTED_EDGE('',*,*,#712,.T.);
#937=ORIENTED_EDGE('',*,*,#670,.F.);
#938=ORIENTED_EDGE('',*,*,#703,.F.);
#939=ORIENTED_EDGE('',*,*,#713,.F.);
#940=ORIENTED_EDGE('',*,*,#667,.F.);
#941=ORIENTED_EDGE('',*,*,#715,.T.);
#942=ORIENTED_EDGE('',*,*,#705,.F.);
#943=ORIENTED_EDGE('',*,*,#716,.F.);
#944=ORIENTED_EDGE('',*,*,#673,.F.);
#945=ORIENTED_EDGE('',*,*,#714,.T.);
#946=ORIENTED_EDGE('',*,*,#675,.F.);
#947=ORIENTED_EDGE('',*,*,#717,.T.);
#948=ORIENTED_EDGE('',*,*,#700,.F.);
#949=ORIENTED_EDGE('',*,*,#717,.F.);
#950=ORIENTED_EDGE('',*,*,#676,.F.);
#951=ORIENTED_EDGE('',*,*,#718,.T.);
#952=ORIENTED_EDGE('',*,*,#699,.F.);
#953=ORIENTED_EDGE('',*,*,#718,.F.);
#954=ORIENTED_EDGE('',*,*,#678,.F.);
#955=ORIENTED_EDGE('',*,*,#719,.T.);
#956=ORIENTED_EDGE('',*,*,#697,.F.);
#957=ORIENTED_EDGE('',*,*,#719,.F.);
#958=ORIENTED_EDGE('',*,*,#677,.F.);
#959=ORIENTED_EDGE('',*,*,#720,.T.);
#960=ORIENTED_EDGE('',*,*,#698,.F.);
#961=ORIENTED_EDGE('',*,*,#720,.F.);
#962=ORIENTED_EDGE('',*,*,#662,.F.);
#963=ORIENTED_EDGE('',*,*,#721,.T.);
#964=ORIENTED_EDGE('',*,*,#695,.T.);
#965=ORIENTED_EDGE('',*,*,#639,.T.);
#966=ORIENTED_EDGE('',*,*,#722,.F.);
#967=ORIENTED_EDGE('',*,*,#723,.F.);
#968=ORIENTED_EDGE('',*,*,#724,.T.);
#969=ORIENTED_EDGE('',*,*,#725,.F.);
#970=ORIENTED_EDGE('',*,*,#726,.T.);
#971=ORIENTED_EDGE('',*,*,#727,.T.);
#972=ORIENTED_EDGE('',*,*,#728,.T.);
#973=ORIENTED_EDGE('',*,*,#729,.T.);
#974=ORIENTED_EDGE('',*,*,#730,.T.);
#975=ORIENTED_EDGE('',*,*,#731,.T.);
#976=ORIENTED_EDGE('',*,*,#732,.T.);
#977=ORIENTED_EDGE('',*,*,#733,.T.);
#978=ORIENTED_EDGE('',*,*,#734,.T.);
#979=ORIENTED_EDGE('',*,*,#735,.T.);
#980=ORIENTED_EDGE('',*,*,#736,.T.);
#981=ORIENTED_EDGE('',*,*,#737,.T.);
#982=ORIENTED_EDGE('',*,*,#738,.F.);
#983=ORIENTED_EDGE('',*,*,#645,.F.);
#984=ORIENTED_EDGE('',*,*,#627,.T.);
#985=ORIENTED_EDGE('',*,*,#652,.F.);
#986=ORIENTED_EDGE('',*,*,#739,.T.);
#987=ORIENTED_EDGE('',*,*,#740,.F.);
#988=ORIENTED_EDGE('',*,*,#741,.F.);
#989=ORIENTED_EDGE('',*,*,#665,.F.);
#990=ORIENTED_EDGE('',*,*,#621,.F.);
#991=ORIENTED_EDGE('',*,*,#742,.F.);
#992=ORIENTED_EDGE('',*,*,#729,.F.);
#993=ORIENTED_EDGE('',*,*,#743,.T.);
#994=ORIENTED_EDGE('',*,*,#744,.F.);
#995=ORIENTED_EDGE('',*,*,#743,.F.);
#996=ORIENTED_EDGE('',*,*,#727,.F.);
#997=ORIENTED_EDGE('',*,*,#745,.T.);
#998=ORIENTED_EDGE('',*,*,#746,.F.);
#999=ORIENTED_EDGE('',*,*,#745,.F.);
#1000=ORIENTED_EDGE('',*,*,#728,.F.);
#1001=ORIENTED_EDGE('',*,*,#747,.T.);
#1002=ORIENTED_EDGE('',*,*,#748,.F.);
#1003=ORIENTED_EDGE('',*,*,#747,.F.);
#1004=ORIENTED_EDGE('',*,*,#735,.F.);
#1005=ORIENTED_EDGE('',*,*,#749,.T.);
#1006=ORIENTED_EDGE('',*,*,#750,.F.);
#1007=ORIENTED_EDGE('',*,*,#749,.F.);
#1008=ORIENTED_EDGE('',*,*,#726,.F.);
#1009=ORIENTED_EDGE('',*,*,#751,.T.);
#1010=ORIENTED_EDGE('',*,*,#752,.F.);
#1011=ORIENTED_EDGE('',*,*,#751,.F.);
#1012=ORIENTED_EDGE('',*,*,#737,.F.);
#1013=ORIENTED_EDGE('',*,*,#753,.T.);
#1014=ORIENTED_EDGE('',*,*,#754,.F.);
#1015=ORIENTED_EDGE('',*,*,#753,.F.);
#1016=ORIENTED_EDGE('',*,*,#755,.F.);
#1017=ORIENTED_EDGE('',*,*,#756,.F.);
#1018=ORIENTED_EDGE('',*,*,#731,.F.);
#1019=ORIENTED_EDGE('',*,*,#757,.T.);
#1020=ORIENTED_EDGE('',*,*,#758,.F.);
#1021=ORIENTED_EDGE('',*,*,#759,.F.);
#1022=ORIENTED_EDGE('',*,*,#732,.F.);
#1023=ORIENTED_EDGE('',*,*,#756,.T.);
#1024=ORIENTED_EDGE('',*,*,#760,.F.);
#1025=ORIENTED_EDGE('',*,*,#761,.F.);
#1026=ORIENTED_EDGE('',*,*,#733,.F.);
#1027=ORIENTED_EDGE('',*,*,#759,.T.);
#1028=ORIENTED_EDGE('',*,*,#762,.F.);
#1029=ORIENTED_EDGE('',*,*,#757,.F.);
#1030=ORIENTED_EDGE('',*,*,#730,.F.);
#1031=ORIENTED_EDGE('',*,*,#761,.T.);
#1032=ORIENTED_EDGE('',*,*,#763,.F.);
#1033=ORIENTED_EDGE('',*,*,#659,.T.);
#1034=ORIENTED_EDGE('',*,*,#764,.F.);
#1035=ORIENTED_EDGE('',*,*,#765,.T.);
#1036=ORIENTED_EDGE('',*,*,#636,.F.);
#1037=ORIENTED_EDGE('',*,*,#766,.F.);
#1038=ORIENTED_EDGE('',*,*,#767,.T.);
#1039=ORIENTED_EDGE('',*,*,#768,.T.);
#1040=ORIENTED_EDGE('',*,*,#722,.T.);
#1041=ORIENTED_EDGE('',*,*,#769,.T.);
#1042=ORIENTED_EDGE('',*,*,#649,.T.);
#1043=ORIENTED_EDGE('',*,*,#770,.F.);
#1044=ORIENTED_EDGE('',*,*,#663,.T.);
#1045=ORIENTED_EDGE('',*,*,#637,.T.);
#1046=ORIENTED_EDGE('',*,*,#770,.T.);
#1047=ORIENTED_EDGE('',*,*,#648,.F.);
#1048=ORIENTED_EDGE('',*,*,#769,.F.);
#1049=ORIENTED_EDGE('',*,*,#725,.T.);
#1050=ORIENTED_EDGE('',*,*,#771,.T.);
#1051=ORIENTED_EDGE('',*,*,#660,.T.);
#1052=ORIENTED_EDGE('',*,*,#763,.T.);
#1053=ORIENTED_EDGE('',*,*,#772,.T.);
#1054=ORIENTED_EDGE('',*,*,#650,.T.);
#1055=ORIENTED_EDGE('',*,*,#738,.T.);
#1056=ORIENTED_EDGE('',*,*,#773,.T.);
#1057=ORIENTED_EDGE('',*,*,#740,.T.);
#1058=ORIENTED_EDGE('',*,*,#774,.F.);
#1059=ORIENTED_EDGE('',*,*,#651,.F.);
#1060=ORIENTED_EDGE('',*,*,#772,.F.);
#1061=ORIENTED_EDGE('',*,*,#765,.F.);
#1062=ORIENTED_EDGE('',*,*,#775,.T.);
#1063=ORIENTED_EDGE('',*,*,#776,.F.);
#1064=ORIENTED_EDGE('',*,*,#646,.F.);
#1065=ORIENTED_EDGE('',*,*,#754,.T.);
#1066=ORIENTED_EDGE('',*,*,#744,.T.);
#1067=ORIENTED_EDGE('',*,*,#777,.T.);
#1068=ORIENTED_EDGE('',*,*,#746,.T.);
#1069=ORIENTED_EDGE('',*,*,#778,.T.);
#1070=ORIENTED_EDGE('',*,*,#748,.T.);
#1071=ORIENTED_EDGE('',*,*,#752,.T.);
#1072=ORIENTED_EDGE('',*,*,#762,.T.);
#1073=ORIENTED_EDGE('',*,*,#760,.T.);
#1074=ORIENTED_EDGE('',*,*,#758,.T.);
#1075=ORIENTED_EDGE('',*,*,#755,.T.);
#1076=ORIENTED_EDGE('',*,*,#750,.T.);
#1077=ORIENTED_EDGE('',*,*,#774,.T.);
#1078=ORIENTED_EDGE('',*,*,#742,.T.);
#1079=ORIENTED_EDGE('',*,*,#620,.F.);
#1080=ORIENTED_EDGE('',*,*,#616,.T.);
#1081=ORIENTED_EDGE('',*,*,#734,.F.);
#1082=ORIENTED_EDGE('',*,*,#779,.T.);
#1083=ORIENTED_EDGE('',*,*,#778,.F.);
#1084=ORIENTED_EDGE('',*,*,#779,.F.);
#1085=ORIENTED_EDGE('',*,*,#736,.F.);
#1086=ORIENTED_EDGE('',*,*,#780,.T.);
#1087=ORIENTED_EDGE('',*,*,#777,.F.);
#1088=ORIENTED_EDGE('',*,*,#780,.F.);
#1089=ORIENTED_EDGE('',*,*,#644,.T.);
#1090=ORIENTED_EDGE('',*,*,#776,.T.);
#1091=ORIENTED_EDGE('',*,*,#781,.T.);
#1092=ORIENTED_EDGE('',*,*,#767,.F.);
#1093=ORIENTED_EDGE('',*,*,#782,.T.);
#1094=ORIENTED_EDGE('',*,*,#654,.T.);
#1095=ORIENTED_EDGE('',*,*,#771,.F.);
#1096=ORIENTED_EDGE('',*,*,#724,.F.);
#1097=ORIENTED_EDGE('',*,*,#783,.F.);
#1098=ORIENTED_EDGE('',*,*,#657,.F.);
#1099=ORIENTED_EDGE('',*,*,#684,.F.);
#1100=ORIENTED_EDGE('',*,*,#696,.T.);
#1101=ORIENTED_EDGE('',*,*,#721,.F.);
#1102=ORIENTED_EDGE('',*,*,#661,.F.);
#1103=ORIENTED_EDGE('',*,*,#655,.T.);
#1104=ORIENTED_EDGE('',*,*,#782,.F.);
#1105=ORIENTED_EDGE('',*,*,#766,.T.);
#1106=ORIENTED_EDGE('',*,*,#635,.T.);
#1107=ORIENTED_EDGE('',*,*,#741,.T.);
#1108=ORIENTED_EDGE('',*,*,#773,.F.);
#1109=ORIENTED_EDGE('',*,*,#739,.F.);
#1110=ORIENTED_EDGE('',*,*,#674,.F.);
#1111=ORIENTED_EDGE('',*,*,#716,.T.);
#1112=ORIENTED_EDGE('',*,*,#704,.F.);
#1113=ORIENTED_EDGE('',*,*,#715,.F.);
#1114=ORIENTED_EDGE('',*,*,#666,.F.);
#1115=ORIENTED_EDGE('',*,*,#768,.F.);
#1116=ORIENTED_EDGE('',*,*,#781,.F.);
#1117=ORIENTED_EDGE('',*,*,#775,.F.);
#1118=ORIENTED_EDGE('',*,*,#764,.T.);
#1119=ORIENTED_EDGE('',*,*,#658,.T.);
#1120=ORIENTED_EDGE('',*,*,#783,.T.);
#1121=ORIENTED_EDGE('',*,*,#723,.T.);
#1122=PLANE('',#1221);
#1123=PLANE('',#1222);
#1124=PLANE('',#1227);
#1125=PLANE('',#1228);
#1126=PLANE('',#1229);
#1127=PLANE('',#1230);
#1128=PLANE('',#1243);
#1129=PLANE('',#1256);
#1130=PLANE('',#1269);
#1131=PLANE('',#1270);
#1132=PLANE('',#1271);
#1133=PLANE('',#1272);
#1134=PLANE('',#1273);
#1135=PLANE('',#1278);
#1136=PLANE('',#1279);
#1137=PLANE('',#1288);
#1138=PLANE('',#1289);
#1139=PLANE('',#1302);
#1140=PLANE('',#1303);
#1141=PLANE('',#1304);
#1142=PLANE('',#1305);
#1143=PLANE('',#1306);
#1144=PLANE('',#1307);
#1145=PLANE('',#1308);
#1146=PLANE('',#1309);
#1147=PLANE('',#1310);
#1148=PLANE('',#1313);
#1149=PLANE('',#1316);
#1150=PLANE('',#1317);
#1151=PLANE('',#1318);
#1152=PLANE('',#1319);
#1153=PLANE('',#1320);
#1154=ADVANCED_FACE('',(#122),#1122,.F.);
#1155=ADVANCED_FACE('',(#123),#1123,.T.);
#1156=ADVANCED_FACE('',(#124),#1124,.F.);
#1157=ADVANCED_FACE('',(#125),#1125,.F.);
#1158=ADVANCED_FACE('',(#126),#1126,.T.);
#1159=ADVANCED_FACE('',(#127,#39,#40,#41,#42,#43,#44,#45,#46),#1127,.F.);
#1160=ADVANCED_FACE('',(#128),#1128,.F.);
#1161=ADVANCED_FACE('',(#129),#19,.F.);
#1162=ADVANCED_FACE('',(#130),#20,.F.);
#1163=ADVANCED_FACE('',(#131),#21,.F.);
#1164=ADVANCED_FACE('',(#132),#22,.F.);
#1165=ADVANCED_FACE('',(#133),#23,.F.);
#1166=ADVANCED_FACE('',(#134),#24,.F.);
#1167=ADVANCED_FACE('',(#135,#47,#48,#49,#50,#51,#52,#53,#54,#55),#1129,
 .T.);
#1168=ADVANCED_FACE('',(#136),#25,.F.);
#1169=ADVANCED_FACE('',(#137),#26,.F.);
#1170=ADVANCED_FACE('',(#138),#1130,.F.);
#1171=ADVANCED_FACE('',(#139),#1131,.F.);
#1172=ADVANCED_FACE('',(#140),#1132,.F.);
#1173=ADVANCED_FACE('',(#141),#1133,.F.);
#1174=ADVANCED_FACE('',(#142),#1134,.F.);
#1175=ADVANCED_FACE('',(#143),#27,.F.);
#1176=ADVANCED_FACE('',(#144),#28,.F.);
#1177=ADVANCED_FACE('',(#145),#29,.F.);
#1178=ADVANCED_FACE('',(#146),#30,.F.);
#1179=ADVANCED_FACE('',(#147),#1135,.T.);
#1180=ADVANCED_FACE('',(#148,#56,#57,#58,#59,#60,#61,#62,#63,#64),#1136,
 .T.);
#1181=ADVANCED_FACE('',(#149),#1137,.T.);
#1182=ADVANCED_FACE('',(#150),#1138,.T.);
#1183=ADVANCED_FACE('',(#151),#31,.F.);
#1184=ADVANCED_FACE('',(#152),#32,.F.);
#1185=ADVANCED_FACE('',(#153),#33,.F.);
#1186=ADVANCED_FACE('',(#154),#34,.F.);
#1187=ADVANCED_FACE('',(#155),#35,.F.);
#1188=ADVANCED_FACE('',(#156),#36,.F.);
#1189=ADVANCED_FACE('',(#157),#1139,.F.);
#1190=ADVANCED_FACE('',(#158),#1140,.F.);
#1191=ADVANCED_FACE('',(#159),#1141,.F.);
#1192=ADVANCED_FACE('',(#160),#1142,.F.);
#1193=ADVANCED_FACE('',(#161),#1143,.T.);
#1194=ADVANCED_FACE('',(#162),#1144,.T.);
#1195=ADVANCED_FACE('',(#163),#1145,.T.);
#1196=ADVANCED_FACE('',(#164),#1146,.T.);
#1197=ADVANCED_FACE('',(#165,#65,#66,#67,#68,#69,#70,#71,#72,#73),#1147,
 .T.);
#1198=ADVANCED_FACE('',(#166),#1148,.F.);
#1199=ADVANCED_FACE('',(#167),#37,.F.);
#1200=ADVANCED_FACE('',(#168),#38,.F.);
#1201=ADVANCED_FACE('',(#169),#1149,.T.);
#1202=ADVANCED_FACE('',(#170),#1150,.T.);
#1203=ADVANCED_FACE('',(#171),#1151,.F.);
#1204=ADVANCED_FACE('',(#172),#1152,.F.);
#1205=ADVANCED_FACE('',(#173),#1153,.F.);
#1206=CLOSED_SHELL('',(#1154,#1155,#1156,#1157,#1158,#1159,#1160,#1161,
#1162,#1163,#1164,#1165,#1166,#1167,#1168,#1169,#1170,#1171,#1172,#1173,
#1174,#1175,#1176,#1177,#1178,#1179,#1180,#1181,#1182,#1183,#1184,#1185,
#1186,#1187,#1188,#1189,#1190,#1191,#1192,#1193,#1194,#1195,#1196,#1197,
#1198,#1199,#1200,#1201,#1202,#1203,#1204,#1205));
#1207=DERIVED_UNIT_ELEMENT(#1209,1.);
#1208=DERIVED_UNIT_ELEMENT(#1992,-3.);
#1209=(
MASS_UNIT()
NAMED_UNIT(*)
SI_UNIT(.KILO.,.GRAM.)
);
#1210=DERIVED_UNIT((#1207,#1208));
#1211=MEASURE_REPRESENTATION_ITEM('density measure',
POSITIVE_RATIO_MEASURE(7850.),#1210);
#1212=PROPERTY_DEFINITION_REPRESENTATION(#1217,#1214);
#1213=PROPERTY_DEFINITION_REPRESENTATION(#1218,#1215);
#1214=REPRESENTATION('material name',(#1216),#1989);
#1215=REPRESENTATION('density',(#1211),#1989);
#1216=DESCRIPTIVE_REPRESENTATION_ITEM('\X2\94A2\X0\','\X2\94A2\X0\');
#1217=PROPERTY_DEFINITION('material property','material name',#2004);
#1218=PROPERTY_DEFINITION('material property','density of part',#2004);
#1219=AXIS2_PLACEMENT_3D('',#1649,#1322,#1323);
#1220=AXIS2_PLACEMENT_3D('',#1650,#1324,#1325);
#1221=AXIS2_PLACEMENT_3D('',#1651,#1326,#1327);
#1222=AXIS2_PLACEMENT_3D('',#1660,#1332,#1333);
#1223=AXIS2_PLACEMENT_3D('',#1670,#1338,#1339);
#1224=AXIS2_PLACEMENT_3D('',#1674,#1341,#1342);
#1225=AXIS2_PLACEMENT_3D('',#1686,#1348,#1349);
#1226=AXIS2_PLACEMENT_3D('',#1705,#1359,#1360);
#1227=AXIS2_PLACEMENT_3D('',#1706,#1361,#1362);
#1228=AXIS2_PLACEMENT_3D('',#1712,#1366,#1367);
#1229=AXIS2_PLACEMENT_3D('',#1716,#1370,#1371);
#1230=AXIS2_PLACEMENT_3D('',#1726,#1377,#1378);
#1231=AXIS2_PLACEMENT_3D('',#1729,#1380,#1381);
#1232=AXIS2_PLACEMENT_3D('',#1747,#1392,#1393);
#1233=AXIS2_PLACEMENT_3D('',#1757,#1398,#1399);
#1234=AXIS2_PLACEMENT_3D('',#1761,#1401,#1402);
#1235=AXIS2_PLACEMENT_3D('',#1768,#1406,#1407);
#1236=AXIS2_PLACEMENT_3D('',#1770,#1408,#1409);
#1237=AXIS2_PLACEMENT_3D('',#1772,#1410,#1411);
#1238=AXIS2_PLACEMENT_3D('',#1774,#1412,#1413);
#1239=AXIS2_PLACEMENT_3D('',#1776,#1414,#1415);
#1240=AXIS2_PLACEMENT_3D('',#1778,#1416,#1417);
#1241=AXIS2_PLACEMENT_3D('',#1780,#1418,#1419);
#1242=AXIS2_PLACEMENT_3D('',#1782,#1420,#1421);
#1243=AXIS2_PLACEMENT_3D('',#1783,#1422,#1423);
#1244=AXIS2_PLACEMENT_3D('',#1787,#1426,#1427);
#1245=AXIS2_PLACEMENT_3D('',#1788,#1428,#1429);
#1246=AXIS2_PLACEMENT_3D('',#1789,#1430,#1431);
#1247=AXIS2_PLACEMENT_3D('',#1790,#1432,#1433);
#1248=AXIS2_PLACEMENT_3D('',#1791,#1434,#1435);
#1249=AXIS2_PLACEMENT_3D('',#1794,#1437,#1438);
#1250=AXIS2_PLACEMENT_3D('',#1795,#1439,#1440);
#1251=AXIS2_PLACEMENT_3D('',#1798,#1442,#1443);
#1252=AXIS2_PLACEMENT_3D('',#1799,#1444,#1445);
#1253=AXIS2_PLACEMENT_3D('',#1802,#1447,#1448);
#1254=AXIS2_PLACEMENT_3D('',#1803,#1449,#1450);
#1255=AXIS2_PLACEMENT_3D('',#1806,#1452,#1453);
#1256=AXIS2_PLACEMENT_3D('',#1807,#1454,#1455);
#1257=AXIS2_PLACEMENT_3D('',#1812,#1458,#1459);
#1258=AXIS2_PLACEMENT_3D('',#1814,#1460,#1461);
#1259=AXIS2_PLACEMENT_3D('',#1816,#1462,#1463);
#1260=AXIS2_PLACEMENT_3D('',#1818,#1464,#1465);
#1261=AXIS2_PLACEMENT_3D('',#1821,#1466,#1467);
#1262=AXIS2_PLACEMENT_3D('',#1833,#1473,#1474);
#1263=AXIS2_PLACEMENT_3D('',#1835,#1476,#1477);
#1264=AXIS2_PLACEMENT_3D('',#1836,#1478,#1479);
#1265=AXIS2_PLACEMENT_3D('',#1837,#1480,#1481);
#1266=AXIS2_PLACEMENT_3D('',#1838,#1482,#1483);
#1267=AXIS2_PLACEMENT_3D('',#1839,#1484,#1485);
#1268=AXIS2_PLACEMENT_3D('',#1840,#1486,#1487);
#1269=AXIS2_PLACEMENT_3D('',#1841,#1488,#1489);
#1270=AXIS2_PLACEMENT_3D('',#1843,#1491,#1492);
#1271=AXIS2_PLACEMENT_3D('',#1845,#1494,#1495);
#1272=AXIS2_PLACEMENT_3D('',#1846,#1496,#1497);
#1273=AXIS2_PLACEMENT_3D('',#1848,#1499,#1500);
#1274=AXIS2_PLACEMENT_3D('',#1850,#1502,#1503);
#1275=AXIS2_PLACEMENT_3D('',#1852,#1505,#1506);
#1276=AXIS2_PLACEMENT_3D('',#1854,#1508,#1509);
#1277=AXIS2_PLACEMENT_3D('',#1856,#1511,#1512);
#1278=AXIS2_PLACEMENT_3D('',#1858,#1514,#1515);
#1279=AXIS2_PLACEMENT_3D('',#1860,#1517,#1518);
#1280=AXIS2_PLACEMENT_3D('',#1870,#1523,#1524);
#1281=AXIS2_PLACEMENT_3D('',#1872,#1525,#1526);
#1282=AXIS2_PLACEMENT_3D('',#1874,#1527,#1528);
#1283=AXIS2_PLACEMENT_3D('',#1876,#1529,#1530);
#1284=AXIS2_PLACEMENT_3D('',#1886,#1535,#1536);
#1285=AXIS2_PLACEMENT_3D('',#1888,#1537,#1538);
#1286=AXIS2_PLACEMENT_3D('',#1890,#1539,#1540);
#1287=AXIS2_PLACEMENT_3D('',#1892,#1541,#1542);
#1288=AXIS2_PLACEMENT_3D('',#1893,#1543,#1544);
#1289=AXIS2_PLACEMENT_3D('',#1897,#1547,#1548);
#1290=AXIS2_PLACEMENT_3D('',#1903,#1552,#1553);
#1291=AXIS2_PLACEMENT_3D('',#1906,#1555,#1556);
#1292=AXIS2_PLACEMENT_3D('',#1907,#1557,#1558);
#1293=AXIS2_PLACEMENT_3D('',#1910,#1560,#1561);
#1294=AXIS2_PLACEMENT_3D('',#1911,#1562,#1563);
#1295=AXIS2_PLACEMENT_3D('',#1914,#1565,#1566);
#1296=AXIS2_PLACEMENT_3D('',#1915,#1567,#1568);
#1297=AXIS2_PLACEMENT_3D('',#1918,#1570,#1571);
#1298=AXIS2_PLACEMENT_3D('',#1919,#1572,#1573);
#1299=AXIS2_PLACEMENT_3D('',#1922,#1575,#1576);
#1300=AXIS2_PLACEMENT_3D('',#1923,#1577,#1578);
#1301=AXIS2_PLACEMENT_3D('',#1926,#1580,#1581);
#1302=AXIS2_PLACEMENT_3D('',#1927,#1582,#1583);
#1303=AXIS2_PLACEMENT_3D('',#1933,#1587,#1588);
#1304=AXIS2_PLACEMENT_3D('',#1937,#1591,#1592);
#1305=AXIS2_PLACEMENT_3D('',#1941,#1595,#1596);
#1306=AXIS2_PLACEMENT_3D('',#1943,#1598,#1599);
#1307=AXIS2_PLACEMENT_3D('',#1949,#1603,#1604);
#1308=AXIS2_PLACEMENT_3D('',#1957,#1610,#1611);
#1309=AXIS2_PLACEMENT_3D('',#1958,#1612,#1613);
#1310=AXIS2_PLACEMENT_3D('',#1961,#1616,#1617);
#1311=AXIS2_PLACEMENT_3D('',#1968,#1622,#1623);
#1312=AXIS2_PLACEMENT_3D('',#1970,#1624,#1625);
#1313=AXIS2_PLACEMENT_3D('',#1971,#1626,#1627);
#1314=AXIS2_PLACEMENT_3D('',#1972,#1628,#1629);
#1315=AXIS2_PLACEMENT_3D('',#1974,#1631,#1632);
#1316=AXIS2_PLACEMENT_3D('',#1976,#1634,#1635);
#1317=AXIS2_PLACEMENT_3D('',#1979,#1638,#1639);
#1318=AXIS2_PLACEMENT_3D('',#1981,#1641,#1642);
#1319=AXIS2_PLACEMENT_3D('',#1982,#1643,#1644);
#1320=AXIS2_PLACEMENT_3D('',#1983,#1645,#1646);
#1321=AXIS2_PLACEMENT_3D('',#1984,#1647,#1648);
#1322=DIRECTION('axis',(0.,0.,1.));
#1323=DIRECTION('refdir',(1.,0.,0.));
#1324=DIRECTION('axis',(0.,0.,1.));
#1325=DIRECTION('refdir',(1.,0.,0.));
#1326=DIRECTION('center_axis',(1.,0.,0.));
#1327=DIRECTION('ref_axis',(0.,0.,-1.));
#1328=DIRECTION('',(0.,-2.08166812908155E-16,-1.));
#1329=DIRECTION('',(0.,-1.,0.));
#1330=DIRECTION('',(0.,0.,1.));
#1331=DIRECTION('',(0.,1.,0.));
#1332=DIRECTION('center_axis',(0.,1.,0.));
#1333=DIRECTION('ref_axis',(0.,0.,1.));
#1334=DIRECTION('',(1.,0.,0.));
#1335=DIRECTION('',(-1.,0.,0.));
#1336=DIRECTION('',(0.,0.,-1.));
#1337=DIRECTION('',(-1.,0.,0.));
#1338=DIRECTION('center_axis',(0.,1.,0.));
#1339=DIRECTION('ref_axis',(0.,0.,1.));
#1340=DIRECTION('',(-1.,0.,0.));
#1341=DIRECTION('center_axis',(0.,-1.,0.));
#1342=DIRECTION('ref_axis',(0.,0.,1.));
#1343=DIRECTION('',(1.,0.,0.));
#1344=DIRECTION('',(0.,0.,-1.));
#1345=DIRECTION('',(-1.,0.,0.));
#1346=DIRECTION('',(0.,0.,-1.));
#1347=DIRECTION('',(-1.,0.,0.));
#1348=DIRECTION('center_axis',(0.,1.,0.));
#1349=DIRECTION('ref_axis',(0.,0.,1.));
#1350=DIRECTION('',(-1.,0.,0.));
#1351=DIRECTION('',(0.,0.,1.));
#1352=DIRECTION('',(-1.,0.,0.));
#1353=DIRECTION('',(0.,0.,1.));
#1354=DIRECTION('',(1.,0.,0.));
#1355=DIRECTION('',(0.,0.,1.));
#1356=DIRECTION('',(-1.,0.,0.));
#1357=DIRECTION('',(0.,0.,1.));
#1358=DIRECTION('',(-1.,0.,0.));
#1359=DIRECTION('center_axis',(0.,-1.,0.));
#1360=DIRECTION('ref_axis',(0.,0.,1.));
#1361=DIRECTION('center_axis',(-1.,0.,0.));
#1362=DIRECTION('ref_axis',(0.,0.,1.));
#1363=DIRECTION('',(0.,-1.,0.));
#1364=DIRECTION('',(0.,1.,0.));
#1365=DIRECTION('',(0.,2.08166812908155E-16,1.));
#1366=DIRECTION('center_axis',(0.,0.,1.));
#1367=DIRECTION('ref_axis',(-1.,0.,0.));
#1368=DIRECTION('',(0.,-1.,0.));
#1369=DIRECTION('',(-1.,0.,0.));
#1370=DIRECTION('center_axis',(0.,-1.,2.08166812908155E-16));
#1371=DIRECTION('ref_axis',(0.,-2.08166812908155E-16,-1.));
#1372=DIRECTION('',(-1.,0.,0.));
#1373=DIRECTION('',(0.,-2.08166812908155E-16,-1.));
#1374=DIRECTION('',(1.,0.,0.));
#1375=DIRECTION('',(0.,2.08166812908155E-16,1.));
#1376=DIRECTION('',(-1.,0.,0.));
#1377=DIRECTION('center_axis',(0.,0.,-1.));
#1378=DIRECTION('ref_axis',(1.,0.,0.));
#1379=DIRECTION('',(0.,1.,0.));
#1380=DIRECTION('center_axis',(0.,0.,-1.));
#1381=DIRECTION('ref_axis',(0.,1.,0.));
#1382=DIRECTION('',(1.,0.,0.));
#1383=DIRECTION('',(0.,-1.,0.));
#1384=DIRECTION('',(0.,-1.,0.));
#1385=DIRECTION('',(1.,0.,0.));
#1386=DIRECTION('',(0.,-1.,0.));
#1387=DIRECTION('',(-1.,0.,0.));
#1388=DIRECTION('',(0.,1.,0.));
#1389=DIRECTION('',(1.,0.,0.));
#1390=DIRECTION('',(0.,1.,0.));
#1391=DIRECTION('',(0.,-1.,0.));
#1392=DIRECTION('center_axis',(0.,0.,-1.));
#1393=DIRECTION('ref_axis',(0.,1.,0.));
#1394=DIRECTION('',(0.,-1.,0.));
#1395=DIRECTION('',(1.,0.,0.));
#1396=DIRECTION('',(0.,-1.,0.));
#1397=DIRECTION('',(-1.,0.,0.));
#1398=DIRECTION('center_axis',(0.,0.,-1.));
#1399=DIRECTION('ref_axis',(0.,1.,0.));
#1400=DIRECTION('',(-1.,0.,0.));
#1401=DIRECTION('center_axis',(0.,0.,-1.));
#1402=DIRECTION('ref_axis',(0.,1.,0.));
#1403=DIRECTION('',(-1.,0.,0.));
#1404=DIRECTION('',(0.,1.,0.));
#1405=DIRECTION('',(1.,0.,0.));
#1406=DIRECTION('center_axis',(0.,0.,-1.));
#1407=DIRECTION('ref_axis',(-1.,0.,0.));
#1408=DIRECTION('center_axis',(0.,0.,-1.));
#1409=DIRECTION('ref_axis',(-1.,0.,0.));
#1410=DIRECTION('center_axis',(0.,0.,-1.));
#1411=DIRECTION('ref_axis',(-1.,0.,0.));
#1412=DIRECTION('center_axis',(0.,0.,-1.));
#1413=DIRECTION('ref_axis',(-1.,0.,0.));
#1414=DIRECTION('center_axis',(0.,0.,-1.));
#1415=DIRECTION('ref_axis',(-1.,0.,0.));
#1416=DIRECTION('center_axis',(0.,0.,-1.));
#1417=DIRECTION('ref_axis',(-1.,0.,0.));
#1418=DIRECTION('center_axis',(0.,0.,-1.));
#1419=DIRECTION('ref_axis',(-1.,0.,0.));
#1420=DIRECTION('center_axis',(0.,0.,-1.));
#1421=DIRECTION('ref_axis',(-1.,0.,0.));
#1422=DIRECTION('center_axis',(1.,0.,0.));
#1423=DIRECTION('ref_axis',(0.,1.,0.));
#1424=DIRECTION('',(0.,1.,0.));
#1425=DIRECTION('',(0.,0.,-1.));
#1426=DIRECTION('center_axis',(0.,0.383377674274505,-0.923591662407079));
#1427=DIRECTION('ref_axis',(-1.,0.,0.));
#1428=DIRECTION('center_axis',(0.,0.,-1.));
#1429=DIRECTION('ref_axis',(0.,1.,0.));
#1430=DIRECTION('center_axis',(0.,0.383377674274505,-0.923591662407079));
#1431=DIRECTION('ref_axis',(-1.,0.,0.));
#1432=DIRECTION('center_axis',(0.,0.,-1.));
#1433=DIRECTION('ref_axis',(0.,1.,0.));
#1434=DIRECTION('center_axis',(0.,0.,-1.));
#1435=DIRECTION('ref_axis',(-1.,0.,0.));
#1436=DIRECTION('',(0.,0.,-1.));
#1437=DIRECTION('center_axis',(0.,0.,1.));
#1438=DIRECTION('ref_axis',(-1.,0.,0.));
#1439=DIRECTION('center_axis',(0.,0.,-1.));
#1440=DIRECTION('ref_axis',(-1.,0.,0.));
#1441=DIRECTION('',(0.,0.,-1.));
#1442=DIRECTION('center_axis',(0.,0.,1.));
#1443=DIRECTION('ref_axis',(-1.,0.,0.));
#1444=DIRECTION('center_axis',(0.,0.,-1.));
#1445=DIRECTION('ref_axis',(-1.,0.,0.));
#1446=DIRECTION('',(0.,0.,-1.));
#1447=DIRECTION('center_axis',(0.,0.,1.));
#1448=DIRECTION('ref_axis',(-1.,0.,0.));
#1449=DIRECTION('center_axis',(0.,0.,-1.));
#1450=DIRECTION('ref_axis',(-1.,0.,0.));
#1451=DIRECTION('',(0.,0.,-1.));
#1452=DIRECTION('center_axis',(0.,0.,1.));
#1453=DIRECTION('ref_axis',(-1.,0.,0.));
#1454=DIRECTION('center_axis',(0.,0.,-1.));
#1455=DIRECTION('ref_axis',(0.,1.,0.));
#1456=DIRECTION('',(0.,1.,0.));
#1457=DIRECTION('',(1.,0.,0.));
#1458=DIRECTION('center_axis',(0.,0.,1.));
#1459=DIRECTION('ref_axis',(-1.,0.,0.));
#1460=DIRECTION('center_axis',(0.,0.,1.));
#1461=DIRECTION('ref_axis',(-1.,0.,0.));
#1462=DIRECTION('center_axis',(0.,0.,1.));
#1463=DIRECTION('ref_axis',(-1.,0.,0.));
#1464=DIRECTION('center_axis',(0.,0.,1.));
#1465=DIRECTION('ref_axis',(-1.,0.,0.));
#1466=DIRECTION('center_axis',(0.,0.,1.));
#1467=DIRECTION('ref_axis',(0.,1.,0.));
#1468=DIRECTION('',(1.,0.,0.));
#1469=DIRECTION('',(0.,1.,0.));
#1470=DIRECTION('',(-1.,0.,0.));
#1471=DIRECTION('',(0.,-1.,0.));
#1472=DIRECTION('',(1.,0.,0.));
#1473=DIRECTION('center_axis',(0.,0.,1.));
#1474=DIRECTION('ref_axis',(0.,1.,0.));
#1475=DIRECTION('',(1.,0.,0.));
#1476=DIRECTION('center_axis',(0.,0.383377674274505,-0.923591662407079));
#1477=DIRECTION('ref_axis',(-1.,0.,0.));
#1478=DIRECTION('center_axis',(0.,-1.,0.));
#1479=DIRECTION('ref_axis',(0.,0.,1.));
#1480=DIRECTION('center_axis',(0.,-1.,0.));
#1481=DIRECTION('ref_axis',(0.,0.,1.));
#1482=DIRECTION('center_axis',(0.,0.383377674274505,-0.923591662407079));
#1483=DIRECTION('ref_axis',(-1.,0.,0.));
#1484=DIRECTION('center_axis',(0.,-1.,0.));
#1485=DIRECTION('ref_axis',(0.,0.,1.));
#1486=DIRECTION('center_axis',(0.,-1.,0.));
#1487=DIRECTION('ref_axis',(0.,0.,1.));
#1488=DIRECTION('center_axis',(0.,-1.,0.));
#1489=DIRECTION('ref_axis',(-1.,0.,0.));
#1490=DIRECTION('',(0.,0.,-1.));
#1491=DIRECTION('center_axis',(0.,-1.,0.));
#1492=DIRECTION('ref_axis',(-1.,0.,0.));
#1493=DIRECTION('',(0.,0.,-1.));
#1494=DIRECTION('center_axis',(0.,-1.,0.));
#1495=DIRECTION('ref_axis',(-1.,0.,0.));
#1496=DIRECTION('center_axis',(1.,0.,0.));
#1497=DIRECTION('ref_axis',(0.,-1.,0.));
#1498=DIRECTION('',(0.,0.,-1.));
#1499=DIRECTION('center_axis',(-1.,0.,0.));
#1500=DIRECTION('ref_axis',(0.,1.,0.));
#1501=DIRECTION('',(0.,0.,-1.));
#1502=DIRECTION('center_axis',(0.,0.,-1.));
#1503=DIRECTION('ref_axis',(-1.,0.,0.));
#1504=DIRECTION('',(0.,0.,-1.));
#1505=DIRECTION('center_axis',(0.,0.,-1.));
#1506=DIRECTION('ref_axis',(-1.,0.,0.));
#1507=DIRECTION('',(0.,0.,-1.));
#1508=DIRECTION('center_axis',(0.,0.,-1.));
#1509=DIRECTION('ref_axis',(-1.,0.,0.));
#1510=DIRECTION('',(0.,0.,-1.));
#1511=DIRECTION('center_axis',(0.,0.,-1.));
#1512=DIRECTION('ref_axis',(-1.,0.,0.));
#1513=DIRECTION('',(0.,0.,-1.));
#1514=DIRECTION('center_axis',(1.,0.,0.));
#1515=DIRECTION('ref_axis',(0.,0.,-1.));
#1516=DIRECTION('',(0.,0.,-1.));
#1517=DIRECTION('center_axis',(0.,-0.383377674274505,0.923591662407079));
#1518=DIRECTION('ref_axis',(1.,0.,0.));
#1519=DIRECTION('',(1.,0.,0.));
#1520=DIRECTION('',(0.,0.923591662407079,0.383377674274505));
#1521=DIRECTION('',(1.,0.,0.));
#1522=DIRECTION('',(0.,-0.923591662407079,-0.383377674274505));
#1523=DIRECTION('center_axis',(0.,-0.383377674274505,0.923591662407079));
#1524=DIRECTION('ref_axis',(1.,0.,0.));
#1525=DIRECTION('center_axis',(0.,-0.383377674274505,0.923591662407079));
#1526=DIRECTION('ref_axis',(1.,0.,0.));
#1527=DIRECTION('center_axis',(0.,-0.383377674274505,0.923591662407079));
#1528=DIRECTION('ref_axis',(1.,0.,0.));
#1529=DIRECTION('center_axis',(0.,-0.383377674274505,0.923591662407079));
#1530=DIRECTION('ref_axis',(1.,0.,0.));
#1531=DIRECTION('',(0.,0.923591662407079,0.383377674274505));
#1532=DIRECTION('',(1.,0.,0.));
#1533=DIRECTION('',(0.,-0.923591662407079,-0.383377674274505));
#1534=DIRECTION('',(-1.,0.,0.));
#1535=DIRECTION('center_axis',(0.,-0.383377674274505,0.923591662407079));
#1536=DIRECTION('ref_axis',(1.,0.,0.));
#1537=DIRECTION('center_axis',(0.,-0.383377674274505,0.923591662407079));
#1538=DIRECTION('ref_axis',(1.,0.,0.));
#1539=DIRECTION('center_axis',(0.,-0.383377674274505,0.923591662407079));
#1540=DIRECTION('ref_axis',(1.,0.,0.));
#1541=DIRECTION('center_axis',(0.,-0.383377674274505,0.923591662407079));
#1542=DIRECTION('ref_axis',(1.,0.,0.));
#1543=DIRECTION('center_axis',(-1.,0.,0.));
#1544=DIRECTION('ref_axis',(0.,-1.,0.));
#1545=DIRECTION('',(0.,-0.923591662407079,-0.383377674274505));
#1546=DIRECTION('',(0.,0.,1.));
#1547=DIRECTION('center_axis',(1.,0.,0.));
#1548=DIRECTION('ref_axis',(0.,1.,0.));
#1549=DIRECTION('',(0.,0.923591662407079,0.383377674274505));
#1550=DIRECTION('',(0.,0.,1.));
#1551=DIRECTION('',(0.,1.,0.));
#1552=DIRECTION('center_axis',(0.,0.383377674274505,-0.923591662407079));
#1553=DIRECTION('ref_axis',(1.,0.,0.));
#1554=DIRECTION('',(0.,0.383377674274505,-0.923591662407079));
#1555=DIRECTION('center_axis',(0.,-0.383377674274505,0.923591662407079));
#1556=DIRECTION('ref_axis',(1.,0.,0.));
#1557=DIRECTION('center_axis',(0.,0.383377674274505,-0.923591662407079));
#1558=DIRECTION('ref_axis',(1.,0.,0.));
#1559=DIRECTION('',(0.,0.383377674274505,-0.923591662407079));
#1560=DIRECTION('center_axis',(0.,-0.383377674274505,0.923591662407079));
#1561=DIRECTION('ref_axis',(1.,0.,0.));
#1562=DIRECTION('center_axis',(0.,0.383377674274505,-0.923591662407079));
#1563=DIRECTION('ref_axis',(1.,0.,0.));
#1564=DIRECTION('',(0.,0.383377674274505,-0.923591662407079));
#1565=DIRECTION('center_axis',(0.,-0.383377674274505,0.923591662407079));
#1566=DIRECTION('ref_axis',(1.,0.,0.));
#1567=DIRECTION('center_axis',(0.,0.383377674274505,-0.923591662407079));
#1568=DIRECTION('ref_axis',(1.,0.,0.));
#1569=DIRECTION('',(0.,0.383377674274505,-0.923591662407079));
#1570=DIRECTION('center_axis',(0.,-0.383377674274505,0.923591662407079));
#1571=DIRECTION('ref_axis',(1.,0.,0.));
#1572=DIRECTION('center_axis',(0.,0.383377674274505,-0.923591662407079));
#1573=DIRECTION('ref_axis',(1.,0.,0.));
#1574=DIRECTION('',(0.,0.383377674274505,-0.923591662407079));
#1575=DIRECTION('center_axis',(0.,-0.383377674274505,0.923591662407079));
#1576=DIRECTION('ref_axis',(1.,0.,0.));
#1577=DIRECTION('center_axis',(0.,0.383377674274505,-0.923591662407079));
#1578=DIRECTION('ref_axis',(1.,0.,0.));
#1579=DIRECTION('',(0.,0.383377674274505,-0.923591662407079));
#1580=DIRECTION('center_axis',(0.,-0.383377674274505,0.923591662407079));
#1581=DIRECTION('ref_axis',(1.,0.,0.));
#1582=DIRECTION('center_axis',(0.,-0.923591662407079,-0.383377674274505));
#1583=DIRECTION('ref_axis',(-1.,0.,0.));
#1584=DIRECTION('',(1.,0.,0.));
#1585=DIRECTION('',(0.,0.383377674274505,-0.923591662407079));
#1586=DIRECTION('',(0.,0.383377674274505,-0.923591662407079));
#1587=DIRECTION('center_axis',(-1.,0.,0.));
#1588=DIRECTION('ref_axis',(0.,0.923591662407079,0.383377674274505));
#1589=DIRECTION('',(0.,-0.923591662407079,-0.383377674274505));
#1590=DIRECTION('',(0.,0.383377674274505,-0.923591662407079));
#1591=DIRECTION('center_axis',(0.,0.923591662407079,0.383377674274505));
#1592=DIRECTION('ref_axis',(1.,0.,0.));
#1593=DIRECTION('',(-1.,0.,0.));
#1594=DIRECTION('',(0.,0.383377674274505,-0.923591662407079));
#1595=DIRECTION('center_axis',(1.,0.,0.));
#1596=DIRECTION('ref_axis',(0.,-0.923591662407079,-0.383377674274505));
#1597=DIRECTION('',(0.,0.923591662407079,0.383377674274505));
#1598=DIRECTION('center_axis',(0.,0.999999999999997,8.19563826803813E-8));
#1599=DIRECTION('ref_axis',(0.,-8.19563826803813E-8,0.999999999999997));
#1600=DIRECTION('',(0.,-8.19563826803813E-8,0.999999999999997));
#1601=DIRECTION('',(0.,8.19563826803813E-8,-0.999999999999997));
#1602=DIRECTION('',(1.,0.,0.));
#1603=DIRECTION('center_axis',(0.,0.,1.));
#1604=DIRECTION('ref_axis',(0.,-1.,0.));
#1605=DIRECTION('',(0.,-1.,0.));
#1606=DIRECTION('',(1.,0.,0.));
#1607=DIRECTION('',(0.,-1.,0.));
#1608=DIRECTION('',(0.,1.,0.));
#1609=DIRECTION('',(0.,-1.,0.));
#1610=DIRECTION('center_axis',(1.,0.,0.));
#1611=DIRECTION('ref_axis',(0.,0.,-1.));
#1612=DIRECTION('center_axis',(1.,0.,0.));
#1613=DIRECTION('ref_axis',(0.,0.,-1.));
#1614=DIRECTION('',(0.,0.,-1.));
#1615=DIRECTION('',(0.,0.923591662407079,0.383377674274505));
#1616=DIRECTION('center_axis',(0.,0.383377674274505,-0.923591662407079));
#1617=DIRECTION('ref_axis',(0.,0.923591662407079,0.383377674274505));
#1618=DIRECTION('',(1.,0.,0.));
#1619=DIRECTION('',(-1.,0.,0.));
#1620=DIRECTION('',(0.,0.923591662407079,0.383377674274505));
#1621=DIRECTION('',(-1.,0.,0.));
#1622=DIRECTION('center_axis',(0.,-0.383377674274505,0.923591662407079));
#1623=DIRECTION('ref_axis',(1.,0.,0.));
#1624=DIRECTION('center_axis',(0.,-0.383377674274505,0.923591662407079));
#1625=DIRECTION('ref_axis',(1.,0.,0.));
#1626=DIRECTION('center_axis',(0.,0.,1.));
#1627=DIRECTION('ref_axis',(-1.,0.,0.));
#1628=DIRECTION('center_axis',(0.,0.383377674274505,-0.923591662407079));
#1629=DIRECTION('ref_axis',(1.,0.,0.));
#1630=DIRECTION('',(0.,0.383377674274505,-0.923591662407079));
#1631=DIRECTION('center_axis',(0.,0.383377674274505,-0.923591662407079));
#1632=DIRECTION('ref_axis',(1.,0.,0.));
#1633=DIRECTION('',(0.,0.383377674274505,-0.923591662407079));
#1634=DIRECTION('center_axis',(0.,-1.,2.08166812908155E-16));
#1635=DIRECTION('ref_axis',(0.,-2.08166812908155E-16,-1.));
#1636=DIRECTION('',(0.,2.08166812908155E-16,1.));
#1637=DIRECTION('',(0.,-2.08166812908155E-16,-1.));
#1638=DIRECTION('center_axis',(0.,-1.,0.));
#1639=DIRECTION('ref_axis',(0.,0.,-1.));
#1640=DIRECTION('',(0.,0.,1.));
#1641=DIRECTION('center_axis',(1.,0.,0.));
#1642=DIRECTION('ref_axis',(0.,1.,0.));
#1643=DIRECTION('center_axis',(0.,1.,0.));
#1644=DIRECTION('ref_axis',(1.,0.,0.));
#1645=DIRECTION('center_axis',(1.,0.,0.));
#1646=DIRECTION('ref_axis',(0.,1.,0.));
#1647=DIRECTION('',(0.,0.,1.));
#1648=DIRECTION('',(1.,0.,0.));
#1649=CARTESIAN_POINT('',(0.,0.,0.));
#1650=CARTESIAN_POINT('',(0.,0.,0.));
#1651=CARTESIAN_POINT('Origin',(66.000000923872,2.,1.00000001490116));
#1652=CARTESIAN_POINT('',(66.000000923872,-3.00000004470348,27.0000004512521));
#1653=CARTESIAN_POINT('',(66.000000923872,-3.,3.00000002980232));
#1654=CARTESIAN_POINT('',(66.000000923872,-3.00000004470349,8.00000011920929));
#1655=CARTESIAN_POINT('',(66.000000923872,2.,27.000000372529));
#1656=CARTESIAN_POINT('',(66.000000923872,2.,27.000000372529));
#1657=CARTESIAN_POINT('',(66.000000923872,2.,3.00000001490116));
#1658=CARTESIAN_POINT('',(66.000000923872,2.,0.500000007450581));
#1659=CARTESIAN_POINT('',(66.000000923872,2.,3.00000001490116));
#1660=CARTESIAN_POINT('Origin',(0.,2.,0.));
#1661=CARTESIAN_POINT('',(61.3416337770407,2.,3.00000003476938));
#1662=CARTESIAN_POINT('',(31.000000461936,2.,3.00000001490116));
#1663=CARTESIAN_POINT('',(50.0000008046627,2.,27.000000372529));
#1664=CARTESIAN_POINT('',(27.0000004023314,2.,27.000000372529));
#1665=CARTESIAN_POINT('',(50.0000008046627,2.,3.00000001490116));
#1666=CARTESIAN_POINT('',(50.0000008046627,2.,12.5000001862645));
#1667=CARTESIAN_POINT('',(54.6583662229594,2.,3.00000003476938));
#1668=CARTESIAN_POINT('',(20.,2.,3.00000004470348));
#1669=CARTESIAN_POINT('',(55.2706500203508,2.,0.));
#1670=CARTESIAN_POINT('Origin',(58.,2.,5.71509092542816));
#1671=CARTESIAN_POINT('',(24.7293499796492,2.,0.));
#1672=CARTESIAN_POINT('',(0.,2.,0.));
#1673=CARTESIAN_POINT('',(25.3416337770407,2.,3.00000003476938));
#1674=CARTESIAN_POINT('Origin',(22.,2.,5.71509092542816));
#1675=CARTESIAN_POINT('',(30.0000003874302,2.,3.00000001490116));
#1676=CARTESIAN_POINT('',(13.0000001937151,2.,3.00000001490116));
#1677=CARTESIAN_POINT('',(30.0000003874302,2.,27.000000372529));
#1678=CARTESIAN_POINT('',(30.0000003874302,2.,0.500000007450581));
#1679=CARTESIAN_POINT('',(13.9999996125698,2.,27.000000372529));
#1680=CARTESIAN_POINT('',(8.99999980628492,2.,27.000000372529));
#1681=CARTESIAN_POINT('',(13.9999996125698,2.,3.00000001490116));
#1682=CARTESIAN_POINT('',(13.9999996125698,2.,12.5000001862645));
#1683=CARTESIAN_POINT('',(18.6583662229594,2.,3.00000003476938));
#1684=CARTESIAN_POINT('',(20.,2.,3.00000004470348));
#1685=CARTESIAN_POINT('',(19.2706500203508,2.,0.));
#1686=CARTESIAN_POINT('Origin',(22.,2.,5.71509092542816));
#1687=CARTESIAN_POINT('',(-3.,2.,0.));
#1688=CARTESIAN_POINT('',(0.,2.,0.));
#1689=CARTESIAN_POINT('',(-3.,2.,3.00000004470348));
#1690=CARTESIAN_POINT('',(-3.,2.,7.50000011175871));
#1691=CARTESIAN_POINT('',(7.,2.,3.00000004470348));
#1692=CARTESIAN_POINT('',(20.,2.,3.00000004470348));
#1693=CARTESIAN_POINT('',(7.,2.,31.0000004470348));
#1694=CARTESIAN_POINT('',(7.,2.,7.50000011175871));
#1695=CARTESIAN_POINT('',(73.,2.,31.0000004470348));
#1696=CARTESIAN_POINT('',(0.,2.,31.0000004470348));
#1697=CARTESIAN_POINT('',(73.,2.,3.00000004470348));
#1698=CARTESIAN_POINT('',(73.,2.,7.50000011175871));
#1699=CARTESIAN_POINT('',(83.,2.,3.00000004470348));
#1700=CARTESIAN_POINT('',(20.,2.,3.00000004470348));
#1701=CARTESIAN_POINT('',(83.,2.,0.));
#1702=CARTESIAN_POINT('',(83.,2.,7.50000011175871));
#1703=CARTESIAN_POINT('',(60.7293499796492,2.,0.));
#1704=CARTESIAN_POINT('',(0.,2.,0.));
#1705=CARTESIAN_POINT('Origin',(58.,2.,5.71509092542816));
#1706=CARTESIAN_POINT('Origin',(13.9999996125698,2.,25.000000372529));
#1707=CARTESIAN_POINT('',(13.9999996125698,-3.,3.00000002980232));
#1708=CARTESIAN_POINT('',(13.9999996125698,2.,3.00000001490116));
#1709=CARTESIAN_POINT('',(13.9999996125698,-3.00000004470348,27.0000004512521));
#1710=CARTESIAN_POINT('',(13.9999996125698,2.,27.000000372529));
#1711=CARTESIAN_POINT('',(13.9999996125698,-3.00000004470348,20.0000002980232));
#1712=CARTESIAN_POINT('Origin',(62.000000923872,2.,27.000000372529));
#1713=CARTESIAN_POINT('',(30.0000004470348,-3.00000004470348,27.0000005299753));
#1714=CARTESIAN_POINT('',(30.0000003874302,2.,27.000000372529));
#1715=CARTESIAN_POINT('',(20.,-3.00000004470348,27.0000005299753));
#1716=CARTESIAN_POINT('Origin',(40.,-3.00000004470348,15.0000002235174));
#1717=CARTESIAN_POINT('',(73.,-3.00000004470348,3.00000004470348));
#1718=CARTESIAN_POINT('',(20.,-3.00000004470349,3.00000004470348));
#1719=CARTESIAN_POINT('',(73.,-3.00000004470348,31.0000004470348));
#1720=CARTESIAN_POINT('',(73.,-3.00000004470348,15.0000002235174));
#1721=CARTESIAN_POINT('',(70.,-3.00000004470348,31.0000004470348));
#1722=CARTESIAN_POINT('',(20.,-3.00000004470348,31.0000004470348));
#1723=CARTESIAN_POINT('',(70.,-3.00000004470348,27.0000005299753));
#1724=CARTESIAN_POINT('',(70.,-3.00000004470348,15.0000002235174));
#1725=CARTESIAN_POINT('',(20.,-3.00000004470348,27.0000005299753));
#1726=CARTESIAN_POINT('Origin',(17.9999996125698,2.,3.00000001490116));
#1727=CARTESIAN_POINT('',(30.0000004470348,-9.50000029802323,3.00000004470348));
#1728=CARTESIAN_POINT('',(30.0000003874302,2.,3.00000001490116));
#1729=CARTESIAN_POINT('Origin',(22.,3.12701886522375,3.00000004470348));
#1730=CARTESIAN_POINT('',(7.,-3.00000004470348,3.00000004470348));
#1731=CARTESIAN_POINT('',(20.,-3.00000004470349,3.00000004470348));
#1732=CARTESIAN_POINT('',(7.,-29.0000002980232,3.00000004470348));
#1733=CARTESIAN_POINT('',(-3.,-59.0000005960464,3.00000004470348));
#1734=CARTESIAN_POINT('',(-3.,-29.0000002980232,3.00000004470348));
#1735=CARTESIAN_POINT('',(10.,-59.0000005960464,3.00000004470348));
#1736=CARTESIAN_POINT('',(20.,-59.0000005960464,3.00000004470348));
#1737=CARTESIAN_POINT('',(10.,-56.000000551343,3.00000004470348));
#1738=CARTESIAN_POINT('',(10.,-16.2500001713634,3.00000004470348));
#1739=CARTESIAN_POINT('',(70.,-56.000000551343,3.00000004470348));
#1740=CARTESIAN_POINT('',(0.,-56.000000551343,3.00000004470348));
#1741=CARTESIAN_POINT('',(70.,-59.0000005960464,3.00000004470348));
#1742=CARTESIAN_POINT('',(70.,-28.5000002980232,3.00000004470348));
#1743=CARTESIAN_POINT('',(83.,-59.0000005960464,3.00000004470348));
#1744=CARTESIAN_POINT('',(20.,-59.0000005960464,3.00000004470348));
#1745=CARTESIAN_POINT('',(83.,-29.0000002980232,3.00000004470348));
#1746=CARTESIAN_POINT('',(73.,-29.0000002980232,3.00000004470348));
#1747=CARTESIAN_POINT('Origin',(58.,3.12701886522375,3.00000004470348));
#1748=CARTESIAN_POINT('',(50.0000007450581,-9.50000029802323,3.00000004470348));
#1749=CARTESIAN_POINT('',(50.0000007450581,-6.25000017136335,3.00000004470348));
#1750=CARTESIAN_POINT('',(65.,-9.50000029802323,3.00000004470348));
#1751=CARTESIAN_POINT('',(27.5,-9.50000029802323,3.00000004470348));
#1752=CARTESIAN_POINT('',(65.,-49.5000002980232,3.00000004470348));
#1753=CARTESIAN_POINT('',(65.,-6.25000017136335,3.00000004470348));
#1754=CARTESIAN_POINT('',(61.4471602996437,-49.5000002980232,3.00000004470348));
#1755=CARTESIAN_POINT('',(32.5,-49.5000002980232,3.00000004470348));
#1756=CARTESIAN_POINT('',(54.5528397003563,-49.5000002980232,3.00000004470348));
#1757=CARTESIAN_POINT('Origin',(58.,-48.8440003132102,3.00000004470348));
#1758=CARTESIAN_POINT('',(25.4471602996437,-49.5000002980232,3.00000004470348));
#1759=CARTESIAN_POINT('',(32.5,-49.5000002980232,3.00000004470348));
#1760=CARTESIAN_POINT('',(18.5528397003563,-49.5000002980232,3.00000004470348));
#1761=CARTESIAN_POINT('Origin',(22.,-48.8440003132102,3.00000004470348));
#1762=CARTESIAN_POINT('',(15.,-49.5000002980232,3.00000004470348));
#1763=CARTESIAN_POINT('',(32.5,-49.5000002980232,3.00000004470348));
#1764=CARTESIAN_POINT('',(15.,-9.50000029802323,3.00000004470348));
#1765=CARTESIAN_POINT('',(15.,-26.2500001713634,3.00000004470348));
#1766=CARTESIAN_POINT('',(27.5,-9.50000029802323,3.00000004470348));
#1767=CARTESIAN_POINT('',(74.5,-16.5000002980232,3.00000004470348));
#1768=CARTESIAN_POINT('Origin',(73.,-16.5000002980232,3.00000004470348));
#1769=CARTESIAN_POINT('',(74.5,-42.5000002980232,3.00000004470348));
#1770=CARTESIAN_POINT('Origin',(73.,-42.5000002980232,3.00000004470348));
#1771=CARTESIAN_POINT('',(77.6,-9.60000029802322,3.00000004470348));
#1772=CARTESIAN_POINT('Origin',(76.1,-9.60000029802322,3.00000004470348));
#1773=CARTESIAN_POINT('',(77.6,-49.4000002980232,3.00000004470348));
#1774=CARTESIAN_POINT('Origin',(76.1,-49.4000002980232,3.00000004470348));
#1775=CARTESIAN_POINT('',(5.40000000000001,-49.4000002980232,3.00000004470348));
#1776=CARTESIAN_POINT('Origin',(3.90000000000001,-49.4000002980232,3.00000004470348));
#1777=CARTESIAN_POINT('',(5.4,-9.60000029802322,3.00000004470348));
#1778=CARTESIAN_POINT('Origin',(3.90000000000001,-9.60000029802322,3.00000004470348));
#1779=CARTESIAN_POINT('',(8.49999999999999,-16.5000002980232,3.00000004470348));
#1780=CARTESIAN_POINT('Origin',(6.99999999999999,-16.5000002980232,3.00000004470348));
#1781=CARTESIAN_POINT('',(8.49999999999999,-42.5000002980232,3.00000004470348));
#1782=CARTESIAN_POINT('Origin',(6.99999999999999,-42.5000002980232,3.00000004470348));
#1783=CARTESIAN_POINT('Origin',(-3.,-29.5000002980232,15.0000002235174));
#1784=CARTESIAN_POINT('',(-3.,-59.0000005960464,0.));
#1785=CARTESIAN_POINT('',(-3.,-44.2500004470348,0.));
#1786=CARTESIAN_POINT('',(-3.,-59.0000005960464,11.500000141561));
#1787=CARTESIAN_POINT('Origin',(22.,-6.2715471590824,25.6419998300542));
#1788=CARTESIAN_POINT('Origin',(22.,4.37230191267389,0.));
#1789=CARTESIAN_POINT('Origin',(58.,-6.2715471590824,25.6419998300542));
#1790=CARTESIAN_POINT('Origin',(58.,4.37230191267389,0.));
#1791=CARTESIAN_POINT('Origin',(3.90000000000001,-9.60000029802322,3.00000004470348));
#1792=CARTESIAN_POINT('',(5.4,-9.60000029802322,4.47034831374538E-8));
#1793=CARTESIAN_POINT('',(5.4,-9.60000029802322,3.00000004470348));
#1794=CARTESIAN_POINT('Origin',(3.90000000000001,-9.60000029802322,0.));
#1795=CARTESIAN_POINT('Origin',(3.90000000000001,-49.4000002980232,3.00000004470348));
#1796=CARTESIAN_POINT('',(5.40000000000001,-49.4000002980232,4.47034831374538E-8));
#1797=CARTESIAN_POINT('',(5.40000000000001,-49.4000002980232,3.00000004470348));
#1798=CARTESIAN_POINT('Origin',(3.90000000000001,-49.4000002980232,0.));
#1799=CARTESIAN_POINT('Origin',(6.99999999999999,-16.5000002980232,3.00000004470348));
#1800=CARTESIAN_POINT('',(8.49999999999999,-16.5000002980232,4.47034831374538E-8));
#1801=CARTESIAN_POINT('',(8.49999999999999,-16.5000002980232,3.00000004470348));
#1802=CARTESIAN_POINT('Origin',(6.99999999999999,-16.5000002980232,0.));
#1803=CARTESIAN_POINT('Origin',(6.99999999999999,-42.5000002980232,3.00000004470348));
#1804=CARTESIAN_POINT('',(8.49999999999999,-42.5000002980232,4.47034831374538E-8));
#1805=CARTESIAN_POINT('',(8.49999999999999,-42.5000002980232,3.00000004470348));
#1806=CARTESIAN_POINT('Origin',(6.99999999999999,-42.5000002980232,0.));
#1807=CARTESIAN_POINT('Origin',(0.,-59.0000005960464,0.));
#1808=CARTESIAN_POINT('',(83.,-59.0000005960464,0.));
#1809=CARTESIAN_POINT('',(83.,-44.2500004470348,0.));
#1810=CARTESIAN_POINT('',(0.,-59.0000005960464,0.));
#1811=CARTESIAN_POINT('',(77.6,-49.4000002980232,4.47034831374538E-8));
#1812=CARTESIAN_POINT('Origin',(76.1,-49.4000002980232,0.));
#1813=CARTESIAN_POINT('',(77.6,-9.60000029802322,4.47034831374538E-8));
#1814=CARTESIAN_POINT('Origin',(76.1,-9.60000029802322,0.));
#1815=CARTESIAN_POINT('',(74.5,-42.5000002980232,4.47034831374538E-8));
#1816=CARTESIAN_POINT('Origin',(73.,-42.5000002980232,0.));
#1817=CARTESIAN_POINT('',(74.5,-16.5000002980232,4.47034831374538E-8));
#1818=CARTESIAN_POINT('Origin',(73.,-16.5000002980232,0.));
#1819=CARTESIAN_POINT('',(54.9723884261058,-49.5000002980232,1.11022302462516E-15));
#1820=CARTESIAN_POINT('',(61.0276115738943,-49.5000002980232,1.11022302462516E-15));
#1821=CARTESIAN_POINT('Origin',(58.,-47.5987172657601,0.));
#1822=CARTESIAN_POINT('',(65.,-49.5000002980232,0.));
#1823=CARTESIAN_POINT('',(32.5,-49.5000002980232,0.));
#1824=CARTESIAN_POINT('',(65.,-9.50000029802323,0.));
#1825=CARTESIAN_POINT('',(65.,-34.2500004470348,0.));
#1826=CARTESIAN_POINT('',(15.,-9.50000029802323,0.));
#1827=CARTESIAN_POINT('',(7.5,-9.50000029802323,0.));
#1828=CARTESIAN_POINT('',(15.,-49.5000002980232,0.));
#1829=CARTESIAN_POINT('',(15.,-54.2500004470348,0.));
#1830=CARTESIAN_POINT('',(18.9723884261058,-49.5000002980232,0.));
#1831=CARTESIAN_POINT('',(32.5,-49.5000002980232,0.));
#1832=CARTESIAN_POINT('',(25.0276115738943,-49.5000002980232,0.));
#1833=CARTESIAN_POINT('Origin',(22.,-47.5987172657601,0.));
#1834=CARTESIAN_POINT('',(32.5,-49.5000002980232,0.));
#1835=CARTESIAN_POINT('Origin',(58.,-50.6039469546222,7.23987146487798));
#1836=CARTESIAN_POINT('Origin',(58.,-49.5000002980232,4.58036363175639));
#1837=CARTESIAN_POINT('Origin',(58.,-49.5000002980232,4.58036363175639));
#1838=CARTESIAN_POINT('Origin',(22.,-50.6039469546222,7.23987146487797));
#1839=CARTESIAN_POINT('Origin',(22.,-49.5000002980232,4.58036363175641));
#1840=CARTESIAN_POINT('Origin',(22.,-49.5000002980232,4.58036363175641));
#1841=CARTESIAN_POINT('Origin',(65.,-49.5000002980232,3.00000004470348));
#1842=CARTESIAN_POINT('',(65.,-49.5000002980232,3.00000004470348));
#1843=CARTESIAN_POINT('Origin',(65.,-49.5000002980232,3.00000004470348));
#1844=CARTESIAN_POINT('',(15.,-49.5000002980232,3.00000004470348));
#1845=CARTESIAN_POINT('Origin',(65.,-49.5000002980232,3.00000004470348));
#1846=CARTESIAN_POINT('Origin',(65.,-9.50000029802323,3.00000004470348));
#1847=CARTESIAN_POINT('',(65.,-9.50000029802323,3.00000004470348));
#1848=CARTESIAN_POINT('Origin',(15.,-49.5000002980232,3.00000004470348));
#1849=CARTESIAN_POINT('',(15.,-9.50000029802323,3.00000004470348));
#1850=CARTESIAN_POINT('Origin',(73.,-16.5000002980232,3.00000004470348));
#1851=CARTESIAN_POINT('',(74.5,-16.5000002980232,3.00000004470348));
#1852=CARTESIAN_POINT('Origin',(73.,-42.5000002980232,3.00000004470348));
#1853=CARTESIAN_POINT('',(74.5,-42.5000002980232,3.00000004470348));
#1854=CARTESIAN_POINT('Origin',(76.1,-49.4000002980232,3.00000004470348));
#1855=CARTESIAN_POINT('',(77.6,-49.4000002980232,3.00000004470348));
#1856=CARTESIAN_POINT('Origin',(76.1,-9.60000029802322,3.00000004470348));
#1857=CARTESIAN_POINT('',(77.6,-9.60000029802322,3.00000004470348));
#1858=CARTESIAN_POINT('Origin',(83.,-29.5000002980232,15.0000002235174));
#1859=CARTESIAN_POINT('',(83.,-59.0000005960464,11.500000141561));
#1860=CARTESIAN_POINT('Origin',(40.,-31.2997156769021,19.335678146818));
#1861=CARTESIAN_POINT('',(10.,-3.19930308898616,31.0000004470348));
#1862=CARTESIAN_POINT('',(70.,-3.19930308898616,31.0000004470348));
#1863=CARTESIAN_POINT('',(40.,-3.19930308898616,31.0000004470348));
#1864=CARTESIAN_POINT('',(10.,-59.0000005960464,7.83744657837187));
#1865=CARTESIAN_POINT('',(10.,-30.7773604788995,19.5525048345271));
#1866=CARTESIAN_POINT('',(70.,-59.0000005960464,7.83744657837187));
#1867=CARTESIAN_POINT('',(20.,-59.0000005960464,7.83744657837187));
#1868=CARTESIAN_POINT('',(70.,-30.5117971573076,19.6627386670188));
#1869=CARTESIAN_POINT('',(56.5,-52.0495778700676,10.7225277331387));
#1870=CARTESIAN_POINT('Origin',(58.,-52.0495778700676,10.7225277331387));
#1871=CARTESIAN_POINT('',(64.5,-51.1259862076606,11.1059054074132));
#1872=CARTESIAN_POINT('Origin',(66.,-51.1259862076606,11.1059054074132));
#1873=CARTESIAN_POINT('',(20.5,-52.0495778700676,10.7225277331387));
#1874=CARTESIAN_POINT('Origin',(22.,-52.0495778700676,10.7225277331387));
#1875=CARTESIAN_POINT('',(12.5,-51.1259862076606,11.1059054074132));
#1876=CARTESIAN_POINT('Origin',(14.,-51.1259862076606,11.1059054074132));
#1877=CARTESIAN_POINT('',(55.0000008195639,-14.2176208964269,26.4263590561794));
#1878=CARTESIAN_POINT('',(55.0000008195639,-45.6197378861956,13.391517936612));
#1879=CARTESIAN_POINT('',(55.0000008195639,-22.7586682866645,22.8810186014987));
#1880=CARTESIAN_POINT('',(25.0000002235174,-45.6197378861956,13.391517936612));
#1881=CARTESIAN_POINT('',(47.5000004097819,-45.6197378861956,13.391517936612));
#1882=CARTESIAN_POINT('',(25.0000002235174,-14.2176208964269,26.4263590561794));
#1883=CARTESIAN_POINT('',(25.0000002235174,-38.4597267815488,16.363598041715));
#1884=CARTESIAN_POINT('',(32.5000001117587,-14.2176208964269,26.4263590561794));
#1885=CARTESIAN_POINT('',(12.5,-8.64076973693492,28.7412784240404));
#1886=CARTESIAN_POINT('Origin',(14.,-8.64076973693492,28.7412784240404));
#1887=CARTESIAN_POINT('',(20.5,-7.71717807452784,29.1246560983149));
#1888=CARTESIAN_POINT('Origin',(22.,-7.71717807452784,29.1246560983149));
#1889=CARTESIAN_POINT('',(64.5,-8.64076973693492,28.7412784240404));
#1890=CARTESIAN_POINT('Origin',(66.,-8.64076973693492,28.7412784240404));
#1891=CARTESIAN_POINT('',(56.5,-7.71717807452784,29.1246560983149));
#1892=CARTESIAN_POINT('Origin',(58.,-7.71717807452784,29.1246560983149));
#1893=CARTESIAN_POINT('Origin',(30.0000004470348,-3.00000004470348,3.00000004470348));
#1894=CARTESIAN_POINT('',(30.0000004470348,-9.50000029802323,24.3018871955534));
#1895=CARTESIAN_POINT('',(30.0000004470348,-33.7490135480486,14.2362589729928));
#1896=CARTESIAN_POINT('',(30.0000004470348,-9.50000029802323,3.00000004470348));
#1897=CARTESIAN_POINT('Origin',(50.0000007450581,-9.50000029802323,3.00000004470348));
#1898=CARTESIAN_POINT('',(50.0000007450581,-9.50000029802323,24.3018871955534));
#1899=CARTESIAN_POINT('',(50.0000007450581,-3.00000004470348,27.0000005299753));
#1900=CARTESIAN_POINT('',(50.0000007450581,-36.5213337224128,13.0854845517274));
#1901=CARTESIAN_POINT('',(50.0000007450581,-9.50000029802323,3.00000004470348));
#1902=CARTESIAN_POINT('',(50.0000008046627,2.,27.000000372529));
#1903=CARTESIAN_POINT('Origin',(14.,-50.7426085333856,10.1823137450051));
#1904=CARTESIAN_POINT('',(12.5,-49.6803552922151,7.62324913915247));
#1905=CARTESIAN_POINT('',(12.5,-50.7426085333856,10.1823137450051));
#1906=CARTESIAN_POINT('Origin',(14.,-49.6803552922151,7.62324913915247));
#1907=CARTESIAN_POINT('Origin',(66.,-50.7426085333865,10.1823137450072));
#1908=CARTESIAN_POINT('',(64.5,-49.6803552922151,7.62324913915248));
#1909=CARTESIAN_POINT('',(64.5,-50.7426085333865,10.1823137450072));
#1910=CARTESIAN_POINT('Origin',(66.,-49.6803552922151,7.62324913915248));
#1911=CARTESIAN_POINT('Origin',(22.,-51.6662001957931,9.79893607073156));
#1912=CARTESIAN_POINT('',(20.5,-50.6039469546222,7.23987146487797));
#1913=CARTESIAN_POINT('',(20.5,-51.6662001957931,9.79893607073156));
#1914=CARTESIAN_POINT('Origin',(22.,-50.6039469546222,7.23987146487797));
#1915=CARTESIAN_POINT('Origin',(22.,-7.33380040025331,28.2010644359078));
#1916=CARTESIAN_POINT('',(20.5,-6.27154715908239,25.6419998300542));
#1917=CARTESIAN_POINT('',(20.5,-7.33380040025331,28.2010644359078));
#1918=CARTESIAN_POINT('Origin',(22.,-6.27154715908239,25.6419998300542));
#1919=CARTESIAN_POINT('Origin',(58.,-51.6662001957932,9.79893607073169));
#1920=CARTESIAN_POINT('',(56.5,-50.6039469546222,7.23987146487797));
#1921=CARTESIAN_POINT('',(56.5,-51.6662001957932,9.79893607073169));
#1922=CARTESIAN_POINT('Origin',(58.,-50.6039469546222,7.23987146487797));
#1923=CARTESIAN_POINT('Origin',(58.,-7.33380040025331,28.2010644359078));
#1924=CARTESIAN_POINT('',(56.5,-6.27154715908239,25.6419998300542));
#1925=CARTESIAN_POINT('',(56.5,-7.33380040025331,28.2010644359078));
#1926=CARTESIAN_POINT('Origin',(58.,-6.27154715908239,25.6419998300542));
#1927=CARTESIAN_POINT('Origin',(55.0000008195639,-45.2363602119211,12.4679262742049));
#1928=CARTESIAN_POINT('',(25.0000002235174,-44.1741069707501,9.90886166835124));
#1929=CARTESIAN_POINT('',(55.0000008195639,-44.1741069707501,9.90886166835124));
#1930=CARTESIAN_POINT('',(27.5000004097819,-44.1741069707501,9.90886166835124));
#1931=CARTESIAN_POINT('',(25.0000002235174,-45.2363602119211,12.4679262742049));
#1932=CARTESIAN_POINT('',(55.0000008195639,-45.2363602119211,12.4679262742049));
#1933=CARTESIAN_POINT('Origin',(25.0000002235174,-45.2363602119211,12.4679262742049));
#1934=CARTESIAN_POINT('',(25.0000002235174,-12.7719899809815,22.9437027879187));
#1935=CARTESIAN_POINT('',(25.0000002235174,-50.0870538430029,7.45443087142852));
#1936=CARTESIAN_POINT('',(25.0000002235174,-13.8342432221524,25.5027673937723));
#1937=CARTESIAN_POINT('Origin',(25.0000002235174,-13.8342432221524,25.5027673937723));
#1938=CARTESIAN_POINT('',(55.0000008195639,-12.7719899809815,22.9437027879187));
#1939=CARTESIAN_POINT('',(12.5000001117587,-12.7719899809815,22.9437027879187));
#1940=CARTESIAN_POINT('',(55.0000008195639,-13.8342432221524,25.5027673937723));
#1941=CARTESIAN_POINT('Origin',(55.0000008195639,-13.8342432221524,25.5027673937723));
#1942=CARTESIAN_POINT('',(55.0000008195639,-34.3859953481186,13.9718514312122));
#1943=CARTESIAN_POINT('Origin',(0.,-56.000000551343,3.00000004470348));
#1944=CARTESIAN_POINT('',(70.,-56.0000007152557,5.00000007450581));
#1945=CARTESIAN_POINT('',(70.,-56.0000011267326,10.0206814099403));
#1946=CARTESIAN_POINT('',(10.,-56.0000007152557,5.00000007450581));
#1947=CARTESIAN_POINT('',(10.,-56.0000010652653,9.27068139876448));
#1948=CARTESIAN_POINT('',(0.,-56.0000007152557,5.0000000745058));
#1949=CARTESIAN_POINT('Origin',(0.,0.,31.0000004470348));
#1950=CARTESIAN_POINT('',(7.,-3.00000004470348,31.0000004470348));
#1951=CARTESIAN_POINT('',(7.,-14.7500001490116,31.0000004470348));
#1952=CARTESIAN_POINT('',(10.,-3.00000004470348,31.0000004470348));
#1953=CARTESIAN_POINT('',(20.,-3.00000004470348,31.0000004470348));
#1954=CARTESIAN_POINT('',(10.,-29.0000002980232,31.0000004470348));
#1955=CARTESIAN_POINT('',(70.,-29.0000002980232,31.0000004470348));
#1956=CARTESIAN_POINT('',(73.,-14.7500001490116,31.0000004470348));
#1957=CARTESIAN_POINT('Origin',(73.,-29.5000002980232,15.0000002235174));
#1958=CARTESIAN_POINT('Origin',(70.,-29.5000002980232,15.0000002235174));
#1959=CARTESIAN_POINT('',(70.,-59.0000005960464,12.5206825442912));
#1960=CARTESIAN_POINT('',(70.,-42.9270427383562,10.4265109765315));
#1961=CARTESIAN_POINT('Origin',(0.,-56.0000007152557,5.00000007450581));
#1962=CARTESIAN_POINT('',(15.0000002235174,-9.50000029802323,24.3018871955534));
#1963=CARTESIAN_POINT('',(20.,-3.00000004470348,27.0000005299753));
#1964=CARTESIAN_POINT('',(10.,-3.00000004470348,27.0000005299753));
#1965=CARTESIAN_POINT('',(10.,-42.9270427383562,10.4265109765315));
#1966=CARTESIAN_POINT('',(20.,-3.00000004470348,27.0000005299753));
#1967=CARTESIAN_POINT('',(64.5,-7.19513882148947,25.2586221557797));
#1968=CARTESIAN_POINT('Origin',(66.,-7.19513882148947,25.2586221557797));
#1969=CARTESIAN_POINT('',(12.5,-7.19513882148947,25.2586221557797));
#1970=CARTESIAN_POINT('Origin',(14.,-7.19513882148947,25.2586221557797));
#1971=CARTESIAN_POINT('Origin',(62.000000923872,2.,27.000000372529));
#1972=CARTESIAN_POINT('Origin',(14.,-8.25739206265998,27.8176867616323));
#1973=CARTESIAN_POINT('',(12.5,-8.25739206265998,27.8176867616323));
#1974=CARTESIAN_POINT('Origin',(66.,-8.25739206265998,27.8176867616323));
#1975=CARTESIAN_POINT('',(64.5,-8.25739206265998,27.8176867616323));
#1976=CARTESIAN_POINT('Origin',(40.,-3.00000004470348,15.0000002235174));
#1977=CARTESIAN_POINT('',(10.,-3.00000004470348,15.0000002235174));
#1978=CARTESIAN_POINT('',(7.,-3.00000004470348,15.0000002235174));
#1979=CARTESIAN_POINT('Origin',(0.,-59.0000005960464,8.00000005960464));
#1980=CARTESIAN_POINT('',(10.,-59.0000005960464,11.7706825331154));
#1981=CARTESIAN_POINT('Origin',(7.,-29.5000002980232,15.0000002235174));
#1982=CARTESIAN_POINT('Origin',(15.,-9.50000029802323,3.00000004470348));
#1983=CARTESIAN_POINT('Origin',(10.,-29.5000002980232,15.0000002235174));
#1984=CARTESIAN_POINT('',(0.,0.,0.));
#1985=UNCERTAINTY_MEASURE_WITH_UNIT(LENGTH_MEASURE(0.01),#1991,
'DISTANCE_ACCURACY_VALUE',
'Maximum model space distance between geometric entities at asserted c
onnectivities');
#1986=UNCERTAINTY_MEASURE_WITH_UNIT(LENGTH_MEASURE(0.01),#1991,
'DISTANCE_ACCURACY_VALUE',
'Maximum model space distance between geometric entities at asserted c
onnectivities');
#1987=UNCERTAINTY_MEASURE_WITH_UNIT(LENGTH_MEASURE(0.01),#1991,
'DISTANCE_ACCURACY_VALUE',
'Maximum model space distance between geometric entities at asserted c
onnectivities');
#1988=(
GEOMETRIC_REPRESENTATION_CONTEXT(3)
GLOBAL_UNCERTAINTY_ASSIGNED_CONTEXT((#1985))
GLOBAL_UNIT_ASSIGNED_CONTEXT((#1991,#1993,#1994))
REPRESENTATION_CONTEXT('','3D')
);
#1989=(
GEOMETRIC_REPRESENTATION_CONTEXT(3)
GLOBAL_UNCERTAINTY_ASSIGNED_CONTEXT((#1986))
GLOBAL_UNIT_ASSIGNED_CONTEXT((#1991,#1993,#1994))
REPRESENTATION_CONTEXT('','3D')
);
#1990=(
GEOMETRIC_REPRESENTATION_CONTEXT(3)
GLOBAL_UNCERTAINTY_ASSIGNED_CONTEXT((#1987))
GLOBAL_UNIT_ASSIGNED_CONTEXT((#1991,#1993,#1994))
REPRESENTATION_CONTEXT('','3D')
);
#1991=(
LENGTH_UNIT()
NAMED_UNIT(*)
SI_UNIT(.MILLI.,.METRE.)
);
#1992=(
LENGTH_UNIT()
NAMED_UNIT(*)
SI_UNIT($,.METRE.)
);
#1993=(
NAMED_UNIT(*)
PLANE_ANGLE_UNIT()
SI_UNIT($,.RADIAN.)
);
#1994=(
NAMED_UNIT(*)
SI_UNIT($,.STERADIAN.)
SOLID_ANGLE_UNIT()
);
#1995=SHAPE_DEFINITION_REPRESENTATION(#1997,#2000);
#1996=SHAPE_DEFINITION_REPRESENTATION(#1998,#2001);
#1997=PRODUCT_DEFINITION_SHAPE('',$,#2003);
#1998=PRODUCT_DEFINITION_SHAPE('',$,#2004);
#1999=PRODUCT_DEFINITION_SHAPE($,$,#14);
#2000=SHAPE_REPRESENTATION('',(#1219,#1321),#1988);
#2001=SHAPE_REPRESENTATION('',(#1220),#1989);
#2002=PRODUCT_DEFINITION_CONTEXT('part definition',#2010,'design');
#2003=PRODUCT_DEFINITION('\X2\6FC0514996F78FBE5B8988C5677F\X0\',
'\X2\6FC0514996F78FBE5B8988C5677F\X0\ v15',#2005,#2002);
#2004=PRODUCT_DEFINITION('\X2\6FC0514996F78FBE659C88C5677F\X0\',
'\X2\6FC0514996F78FBE659C88C5677F\X0\',#2006,#2002);
#2005=PRODUCT_DEFINITION_FORMATION('',$,#2012);
#2006=PRODUCT_DEFINITION_FORMATION('',$,#2013);
#2007=PRODUCT_RELATED_PRODUCT_CATEGORY('\X2\6FC0514996F78FBE5B8988C5677F\X0\ 
v15','\X2\6FC0514996F78FBE5B8988C5677F\X0\ v15',(#2012));
#2008=PRODUCT_RELATED_PRODUCT_CATEGORY('\X2\6FC0514996F78FBE659C88C5677F\X0\',
'\X2\6FC0514996F78FBE659C88C5677F\X0\',(#2013));
#2009=APPLICATION_PROTOCOL_DEFINITION('international standard',
'automotive_design',2009,#2010);
#2010=APPLICATION_CONTEXT(
'Core Data for Automotive Mechanical Design Process');
#2011=PRODUCT_CONTEXT('part definition',#2010,'mechanical');
#2012=PRODUCT('\X2\6FC0514996F78FBE5B8988C5677F\X0\',
'\X2\6FC0514996F78FBE5B8988C5677F\X0\ v15',$,(#2011));
#2013=PRODUCT('\X2\6FC0514996F78FBE659C88C5677F\X0\',
'\X2\6FC0514996F78FBE659C88C5677F\X0\',$,(#2011));
#2014=PRESENTATION_STYLE_ASSIGNMENT((#2015));
#2015=SURFACE_STYLE_USAGE(.BOTH.,#2016);
#2016=SURFACE_SIDE_STYLE('',(#2017));
#2017=SURFACE_STYLE_FILL_AREA(#2018);
#2018=FILL_AREA_STYLE('\X2\94A2\X0\ - \X2\7F0E5149\X0\',(#2019));
#2019=FILL_AREA_STYLE_COLOUR('\X2\94A2\X0\ - \X2\7F0E5149\X0\',#2020);
#2020=COLOUR_RGB('\X2\94A2\X0\ - \X2\7F0E5149\X0\',0.627450980392157,0.627450980392157,
0.627450980392157);
ENDSEC;
END-ISO-10303-21;
